<?xml version="1.0" encoding="UTF-8" standalone="no"?><svg xmlns="http://www.w3.org/2000/svg" xmlns:xlink="http://www.w3.org/1999/xlink" contentStyleType="text/css" height="327px" preserveAspectRatio="none" style="width:204px;height:327px;background:#FFFFFF;" version="1.1" viewBox="0 0 204 327" width="204px" zoomAndPan="magnify"><defs/><g><!--entity user--><g id="elem_user"><ellipse cx="101.5" cy="14" fill="#F1F1F1" rx="8" ry="8" style="stroke:#181818;stroke-width:0.5;"/><path d="M101.5,22 L101.5,49 M88.5,30 L114.5,30 M101.5,49 L88.5,64 M101.5,49 L114.5,64 " fill="none" style="stroke:#181818;stroke-width:0.5;"/><text fill="#000000" font-family="sans-serif" font-size="14" lengthAdjust="spacing" textLength="70" x="66.5" y="78.4951">consumer</text></g><!--entity irsdv--><g id="elem_irsdv"><rect fill="#F1F1F1" height="62.5938" rx="2.5" ry="2.5" style="stroke:#181818;stroke-width:0.5;" width="110" x="46.5" y="141.5"/><rect fill="#F1F1F1" height="10" style="stroke:#181818;stroke-width:0.5;" width="15" x="136.5" y="146.5"/><rect fill="#F1F1F1" height="2" style="stroke:#181818;stroke-width:0.5;" width="4" x="134.5" y="148.5"/><rect fill="#F1F1F1" height="2" style="stroke:#181818;stroke-width:0.5;" width="4" x="134.5" y="152.5"/><text fill="#000000" font-family="sans-serif" font-size="14" font-style="italic" lengthAdjust="spacing" textLength="70" x="61.5" y="174.4951">«System»</text><text fill="#000000" font-family="sans-serif" font-size="14" lengthAdjust="spacing" textLength="50" x="71.5" y="190.792">IRS-DV</text></g><!--entity catenaX--><g id="elem_catenaX"><polygon fill="#F1F1F1" points="16,274.5,26,264.5,187,264.5,187,300.7969,177,310.7969,16,310.7969,16,274.5" style="stroke:#181818;stroke-width:0.5;"/><line style="stroke:#181818;stroke-width:0.5;" x1="177" x2="187" y1="274.5" y2="264.5"/><line style="stroke:#181818;stroke-width:0.5;" x1="16" x2="177" y1="274.5" y2="274.5"/><line style="stroke:#181818;stroke-width:0.5;" x1="177" x2="177" y1="274.5" y2="310.7969"/><text fill="#000000" font-family="sans-serif" font-size="14" lengthAdjust="spacing" textLength="131" x="31" y="297.4951">Catena-X network</text></g><!--link user to irsdv--><g id="link_user_irsdv"><path d="M101.5,81.721 C101.5,98.907 101.5,119.223 101.5,136.227 " fill="none" id="user-to-irsdv" style="stroke:#181818;stroke-width:1.0;stroke-dasharray:7.0,7.0;"/><polygon fill="#181818" points="101.5,141.391,105.5,132.391,101.5,136.391,97.5,132.391,101.5,141.391" style="stroke:#181818;stroke-width:1.0;"/></g><!--link irsdv to catenaX--><g id="link_irsdv_catenaX"><path d="M101.5,204.741 C101.5,221.6915 101.5,242.5627 101.5,258.9748 " fill="none" id="irsdv-to-catenaX" style="stroke:#181818;stroke-width:1.0;stroke-dasharray:7.0,7.0;"/><polygon fill="#181818" points="101.5,264.3575,105.5,255.3575,101.5,259.3575,97.5,255.3575,101.5,264.3575" style="stroke:#181818;stroke-width:1.0;"/></g><!--SRC=[BOmn3eCm40JxUyNAFNu1SXCQsY15j9Qv0Y7VHJwJABz7DYbtTZH9nSxC1T5m6XTAcjygB1LkVYx3z7Bjsejj7umZbfzLpWY1H3U6UyJA4eSLmlMhvUXswd0befQ4z-4Eq9rf-wzS]--></g></svg>