<?xml version="1.0" encoding="UTF-8" standalone="no"?><svg xmlns="http://www.w3.org/2000/svg" xmlns:xlink="http://www.w3.org/1999/xlink" contentStyleType="text/css" height="907px" preserveAspectRatio="none" style="width:1194px;height:907px;background:#FFFFFF;" version="1.1" viewBox="0 0 1194 907" width="1194px" zoomAndPan="magnify"><defs/><g><!--class jobRequest--><g id="elem_jobRequest"><rect codeLine="3" fill="#F1F1F1" height="48" id="jobRequest" rx="2.5" ry="2.5" style="stroke:#181818;stroke-width:0.5;" width="114" x="188" y="326.5"/><ellipse cx="203" cy="342.5" fill="#ADD1B2" rx="11" ry="11" style="stroke:#181818;stroke-width:1.0;"/><path d="M205.3438,338.1719 C204.4063,337.7344 203.8125,337.5938 202.9375,337.5938 C200.3125,337.5938 198.3125,339.6719 198.3125,342.3906 L198.3125,343.5156 C198.3125,346.0938 200.4219,347.9844 203.3125,347.9844 C204.5313,347.9844 205.6875,347.6875 206.4375,347.1406 C207.0156,346.7344 207.3438,346.2813 207.3438,345.8906 C207.3438,345.4375 206.9531,345.0469 206.4844,345.0469 C206.2656,345.0469 206.0625,345.125 205.875,345.3125 C205.4219,345.7969 205.4219,345.7969 205.2344,345.8906 C204.8125,346.1563 204.125,346.2813 203.3594,346.2813 C201.3125,346.2813 200.0156,345.1875 200.0156,343.4844 L200.0156,342.3906 C200.0156,340.6094 201.2656,339.2969 203,339.2969 C203.5781,339.2969 204.1875,339.4531 204.6563,339.7031 C205.1406,339.9844 205.3125,340.2031 205.4063,340.6094 C205.4688,341.0156 205.5,341.1406 205.6406,341.2656 C205.7813,341.4063 206.0156,341.5156 206.2344,341.5156 C206.5,341.5156 206.7656,341.375 206.9375,341.1563 C207.0469,341 207.0781,340.8125 207.0781,340.3906 L207.0781,338.9688 C207.0781,338.5313 207.0625,338.4063 206.9688,338.25 C206.8125,337.9844 206.5313,337.8438 206.2344,337.8438 C205.9375,337.8438 205.7344,337.9375 205.5156,338.25 L205.3438,338.1719 Z " fill="#000000"/><text fill="#000000" font-family="sans-serif" font-size="14" lengthAdjust="spacing" textLength="82" x="217" y="347.3467">jobRequest</text><line style="stroke:#181818;stroke-width:0.5;" x1="189" x2="301" y1="358.5" y2="358.5"/><line style="stroke:#181818;stroke-width:0.5;" x1="189" x2="301" y1="366.5" y2="366.5"/></g><!--class job--><g id="elem_job"><rect codeLine="6" fill="#F1F1F1" height="243.5625" id="job" rx="2.5" ry="2.5" style="stroke:#181818;stroke-width:0.5;" width="258" x="7" y="467"/><ellipse cx="120.25" cy="483" fill="#ADD1B2" rx="11" ry="11" style="stroke:#181818;stroke-width:1.0;"/><path d="M122.5938,478.6719 C121.6563,478.2344 121.0625,478.0938 120.1875,478.0938 C117.5625,478.0938 115.5625,480.1719 115.5625,482.8906 L115.5625,484.0156 C115.5625,486.5938 117.6719,488.4844 120.5625,488.4844 C121.7813,488.4844 122.9375,488.1875 123.6875,487.6406 C124.2656,487.2344 124.5938,486.7813 124.5938,486.3906 C124.5938,485.9375 124.2031,485.5469 123.7344,485.5469 C123.5156,485.5469 123.3125,485.625 123.125,485.8125 C122.6719,486.2969 122.6719,486.2969 122.4844,486.3906 C122.0625,486.6563 121.375,486.7813 120.6094,486.7813 C118.5625,486.7813 117.2656,485.6875 117.2656,483.9844 L117.2656,482.8906 C117.2656,481.1094 118.5156,479.7969 120.25,479.7969 C120.8281,479.7969 121.4375,479.9531 121.9063,480.2031 C122.3906,480.4844 122.5625,480.7031 122.6563,481.1094 C122.7188,481.5156 122.75,481.6406 122.8906,481.7656 C123.0313,481.9063 123.2656,482.0156 123.4844,482.0156 C123.75,482.0156 124.0156,481.875 124.1875,481.6563 C124.2969,481.5 124.3281,481.3125 124.3281,480.8906 L124.3281,479.4688 C124.3281,479.0313 124.3125,478.9063 124.2188,478.75 C124.0625,478.4844 123.7813,478.3438 123.4844,478.3438 C123.1875,478.3438 122.9844,478.4375 122.7656,478.75 L122.5938,478.6719 Z " fill="#000000"/><text fill="#000000" font-family="sans-serif" font-size="14" lengthAdjust="spacing" textLength="23" x="140.75" y="487.8467">job</text><line style="stroke:#181818;stroke-width:0.5;" x1="8" x2="264" y1="499" y2="499"/><text fill="#000000" font-family="sans-serif" font-size="14" lengthAdjust="spacing" textLength="113" x="13" y="515.9951">aspects: String,</text><text fill="#000000" font-family="sans-serif" font-size="14" lengthAdjust="spacing" textLength="154" x="13" y="532.292">bomLifecycle: String,</text><text fill="#000000" font-family="sans-serif" font-size="14" lengthAdjust="spacing" textLength="178" x="13" y="548.5889">collectAspects: Boolean,</text><text fill="#000000" font-family="sans-serif" font-size="14" lengthAdjust="spacing" textLength="122" x="13" y="564.8857">direction: String,</text><text fill="#000000" font-family="sans-serif" font-size="14" lengthAdjust="spacing" textLength="114" x="13" y="581.1826">depth: Number,</text><text fill="#000000" font-family="sans-serif" font-size="14" lengthAdjust="spacing" textLength="160" x="13" y="597.4795">createdOn: DateTime,</text><text fill="#000000" font-family="sans-serif" font-size="14" lengthAdjust="spacing" textLength="118" x="13" y="613.7764">requestURL: URI,</text><text fill="#000000" font-family="sans-serif" font-size="14" lengthAdjust="spacing" textLength="157" x="13" y="630.0732">startedOn: DateTime,</text><text fill="#000000" font-family="sans-serif" font-size="14" lengthAdjust="spacing" textLength="173" x="13" y="646.3701">jobFinished": DateTime,</text><text fill="#000000" font-family="sans-serif" font-size="14" lengthAdjust="spacing" textLength="101" x="13" y="662.667">owner: String,</text><line style="stroke:#181818;stroke-width:0.5;" x1="8" x2="264" y1="669.9688" y2="669.9688"/><text fill="#000000" font-family="sans-serif" font-size="14" lengthAdjust="spacing" textLength="201" x="27" y="686.9639">globalAssetId: String (UUID),</text><ellipse cx="18" cy="699.9141" fill="#84BE84" rx="3" ry="3" style="stroke:#038048;stroke-width:1.0;"/><text fill="#000000" font-family="sans-serif" font-size="14" lengthAdjust="spacing" textLength="232" x="27" y="703.2607">jobStatus: JobState ("Finished"),</text></g><!--class jobState--><g id="elem_jobState"><rect codeLine="21" fill="#F1F1F1" height="129.4844" id="jobState" rx="2.5" ry="2.5" style="stroke:#181818;stroke-width:0.5;" width="115" x="32.5" y="771"/><ellipse cx="56.5" cy="787" fill="#ADD1B2" rx="11" ry="11" style="stroke:#181818;stroke-width:1.0;"/><path d="M58.8438,782.6719 C57.9063,782.2344 57.3125,782.0938 56.4375,782.0938 C53.8125,782.0938 51.8125,784.1719 51.8125,786.8906 L51.8125,788.0156 C51.8125,790.5938 53.9219,792.4844 56.8125,792.4844 C58.0313,792.4844 59.1875,792.1875 59.9375,791.6406 C60.5156,791.2344 60.8438,790.7813 60.8438,790.3906 C60.8438,789.9375 60.4531,789.5469 59.9844,789.5469 C59.7656,789.5469 59.5625,789.625 59.375,789.8125 C58.9219,790.2969 58.9219,790.2969 58.7344,790.3906 C58.3125,790.6563 57.625,790.7813 56.8594,790.7813 C54.8125,790.7813 53.5156,789.6875 53.5156,787.9844 L53.5156,786.8906 C53.5156,785.1094 54.7656,783.7969 56.5,783.7969 C57.0781,783.7969 57.6875,783.9531 58.1563,784.2031 C58.6406,784.4844 58.8125,784.7031 58.9063,785.1094 C58.9688,785.5156 59,785.6406 59.1406,785.7656 C59.2813,785.9063 59.5156,786.0156 59.7344,786.0156 C60,786.0156 60.2656,785.875 60.4375,785.6563 C60.5469,785.5 60.5781,785.3125 60.5781,784.8906 L60.5781,783.4688 C60.5781,783.0313 60.5625,782.9063 60.4688,782.75 C60.3125,782.4844 60.0313,782.3438 59.7344,782.3438 C59.4375,782.3438 59.2344,782.4375 59.0156,782.75 L58.8438,782.6719 Z " fill="#000000"/><text fill="#000000" font-family="sans-serif" font-size="14" lengthAdjust="spacing" textLength="63" x="72.5" y="791.8467">jobState</text><line style="stroke:#181818;stroke-width:0.5;" x1="33.5" x2="146.5" y1="803" y2="803"/><text fill="#000000" font-family="sans-serif" font-size="14" lengthAdjust="spacing" textLength="53" x="38.5" y="819.9951">INITIAL,</text><text fill="#000000" font-family="sans-serif" font-size="14" lengthAdjust="spacing" textLength="103" x="38.5" y="836.292">IN_PROGRESS,</text><text fill="#000000" font-family="sans-serif" font-size="14" lengthAdjust="spacing" textLength="92" x="38.5" y="852.5889">COMPLETED,</text><text fill="#000000" font-family="sans-serif" font-size="14" lengthAdjust="spacing" textLength="81" x="38.5" y="868.8857">CANCELED,</text><text fill="#000000" font-family="sans-serif" font-size="14" lengthAdjust="spacing" textLength="54" x="38.5" y="885.1826">ERROR,</text><line style="stroke:#181818;stroke-width:0.5;" x1="33.5" x2="146.5" y1="892.4844" y2="892.4844"/></g><!--class jobList--><g id="elem_jobList"><rect codeLine="29" fill="#F1F1F1" height="113.1875" id="jobList" rx="2.5" ry="2.5" style="stroke:#181818;stroke-width:0.5;" width="160" x="183" y="779"/><ellipse cx="234.25" cy="795" fill="#ADD1B2" rx="11" ry="11" style="stroke:#181818;stroke-width:1.0;"/><path d="M236.5938,790.6719 C235.6563,790.2344 235.0625,790.0938 234.1875,790.0938 C231.5625,790.0938 229.5625,792.1719 229.5625,794.8906 L229.5625,796.0156 C229.5625,798.5938 231.6719,800.4844 234.5625,800.4844 C235.7813,800.4844 236.9375,800.1875 237.6875,799.6406 C238.2656,799.2344 238.5938,798.7813 238.5938,798.3906 C238.5938,797.9375 238.2031,797.5469 237.7344,797.5469 C237.5156,797.5469 237.3125,797.625 237.125,797.8125 C236.6719,798.2969 236.6719,798.2969 236.4844,798.3906 C236.0625,798.6563 235.375,798.7813 234.6094,798.7813 C232.5625,798.7813 231.2656,797.6875 231.2656,795.9844 L231.2656,794.8906 C231.2656,793.1094 232.5156,791.7969 234.25,791.7969 C234.8281,791.7969 235.4375,791.9531 235.9063,792.2031 C236.3906,792.4844 236.5625,792.7031 236.6563,793.1094 C236.7188,793.5156 236.75,793.6406 236.8906,793.7656 C237.0313,793.9063 237.2656,794.0156 237.4844,794.0156 C237.75,794.0156 238.0156,793.875 238.1875,793.6563 C238.2969,793.5 238.3281,793.3125 238.3281,792.8906 L238.3281,791.4688 C238.3281,791.0313 238.3125,790.9063 238.2188,790.75 C238.0625,790.4844 237.7813,790.3438 237.4844,790.3438 C237.1875,790.3438 236.9844,790.4375 236.7656,790.75 L236.5938,790.6719 Z " fill="#000000"/><text fill="#000000" font-family="sans-serif" font-size="14" lengthAdjust="spacing" textLength="49" x="254.75" y="799.8467">jobList</text><line style="stroke:#181818;stroke-width:0.5;" x1="184" x2="342" y1="811" y2="811"/><text fill="#000000" font-family="sans-serif" font-size="14" lengthAdjust="spacing" textLength="70" x="189" y="827.9951">Id: String,</text><text fill="#000000" font-family="sans-serif" font-size="14" lengthAdjust="spacing" textLength="148" x="189" y="844.292">Job Start: DateTime,</text><text fill="#000000" font-family="sans-serif" font-size="14" lengthAdjust="spacing" textLength="138" x="189" y="860.5889">Job End: DateTime,</text><text fill="#000000" font-family="sans-serif" font-size="14" lengthAdjust="spacing" textLength="103" x="189" y="876.8857">Status: String,</text><line style="stroke:#181818;stroke-width:0.5;" x1="184" x2="342" y1="884.1875" y2="884.1875"/></g><!--class Visualization--><g id="elem_Visualization"><rect codeLine="36" fill="#F1F1F1" height="64.2969" id="Visualization" rx="2.5" ry="2.5" style="stroke:#181818;stroke-width:0.5;" width="136" x="364" y="318.5"/><ellipse cx="385.3" cy="334.5" fill="#ADD1B2" rx="11" ry="11" style="stroke:#181818;stroke-width:1.0;"/><path d="M387.6438,330.1719 C386.7063,329.7344 386.1125,329.5938 385.2375,329.5938 C382.6125,329.5938 380.6125,331.6719 380.6125,334.3906 L380.6125,335.5156 C380.6125,338.0938 382.7219,339.9844 385.6125,339.9844 C386.8313,339.9844 387.9875,339.6875 388.7375,339.1406 C389.3156,338.7344 389.6438,338.2813 389.6438,337.8906 C389.6438,337.4375 389.2531,337.0469 388.7844,337.0469 C388.5656,337.0469 388.3625,337.125 388.175,337.3125 C387.7219,337.7969 387.7219,337.7969 387.5344,337.8906 C387.1125,338.1563 386.425,338.2813 385.6594,338.2813 C383.6125,338.2813 382.3156,337.1875 382.3156,335.4844 L382.3156,334.3906 C382.3156,332.6094 383.5656,331.2969 385.3,331.2969 C385.8781,331.2969 386.4875,331.4531 386.9563,331.7031 C387.4406,331.9844 387.6125,332.2031 387.7063,332.6094 C387.7688,333.0156 387.8,333.1406 387.9406,333.2656 C388.0813,333.4063 388.3156,333.5156 388.5344,333.5156 C388.8,333.5156 389.0656,333.375 389.2375,333.1563 C389.3469,333 389.3781,332.8125 389.3781,332.3906 L389.3781,330.9688 C389.3781,330.5313 389.3625,330.4063 389.2688,330.25 C389.1125,329.9844 388.8313,329.8438 388.5344,329.8438 C388.2375,329.8438 388.0344,329.9375 387.8156,330.25 L387.6438,330.1719 Z " fill="#000000"/><text fill="#000000" font-family="sans-serif" font-size="14" lengthAdjust="spacing" textLength="90" x="400.7" y="339.3467">Visualization</text><line style="stroke:#181818;stroke-width:0.5;" x1="365" x2="499" y1="350.5" y2="350.5"/><line style="stroke:#181818;stroke-width:0.5;" x1="365" x2="499" y1="358.5" y2="358.5"/><text fill="#000000" font-family="sans-serif" font-size="14" lengthAdjust="spacing" textLength="124" x="370" y="375.4951">(Debugging view)</text></g><!--class VisualizationNode--><g id="elem_VisualizationNode"><rect codeLine="40" fill="#F1F1F1" height="129.4844" id="VisualizationNode" rx="2.5" ry="2.5" style="stroke:#181818;stroke-width:0.5;" width="289" x="433.5" y="771"/><ellipse cx="510.25" cy="787" fill="#ADD1B2" rx="11" ry="11" style="stroke:#181818;stroke-width:1.0;"/><path d="M512.5938,782.6719 C511.6563,782.2344 511.0625,782.0938 510.1875,782.0938 C507.5625,782.0938 505.5625,784.1719 505.5625,786.8906 L505.5625,788.0156 C505.5625,790.5938 507.6719,792.4844 510.5625,792.4844 C511.7813,792.4844 512.9375,792.1875 513.6875,791.6406 C514.2656,791.2344 514.5938,790.7813 514.5938,790.3906 C514.5938,789.9375 514.2031,789.5469 513.7344,789.5469 C513.5156,789.5469 513.3125,789.625 513.125,789.8125 C512.6719,790.2969 512.6719,790.2969 512.4844,790.3906 C512.0625,790.6563 511.375,790.7813 510.6094,790.7813 C508.5625,790.7813 507.2656,789.6875 507.2656,787.9844 L507.2656,786.8906 C507.2656,785.1094 508.5156,783.7969 510.25,783.7969 C510.8281,783.7969 511.4375,783.9531 511.9063,784.2031 C512.3906,784.4844 512.5625,784.7031 512.6563,785.1094 C512.7188,785.5156 512.75,785.6406 512.8906,785.7656 C513.0313,785.9063 513.2656,786.0156 513.4844,786.0156 C513.75,786.0156 514.0156,785.875 514.1875,785.6563 C514.2969,785.5 514.3281,785.3125 514.3281,784.8906 L514.3281,783.4688 C514.3281,783.0313 514.3125,782.9063 514.2188,782.75 C514.0625,782.4844 513.7813,782.3438 513.4844,782.3438 C513.1875,782.3438 512.9844,782.4375 512.7656,782.75 L512.5938,782.6719 Z " fill="#000000"/><text fill="#000000" font-family="sans-serif" font-size="14" lengthAdjust="spacing" textLength="127" x="530.75" y="791.8467">VisualizationNode</text><line style="stroke:#181818;stroke-width:0.5;" x1="434.5" x2="721.5" y1="803" y2="803"/><text fill="#000000" font-family="sans-serif" font-size="14" lengthAdjust="spacing" textLength="154" x="453.5" y="819.9951">globalAssetId: String,</text><ellipse cx="444.5" cy="832.9453" fill="none" rx="3" ry="3" style="stroke:#038048;stroke-width:1.0;"/><text fill="#000000" font-family="sans-serif" font-size="14" lengthAdjust="spacing" textLength="225" x="453.5" y="836.292">specificAssetIds: Array - String,</text><text fill="#000000" font-family="sans-serif" font-size="14" lengthAdjust="spacing" textLength="263" x="453.5" y="852.5889">submodelDescriptors: Array - String,</text><line style="stroke:#181818;stroke-width:0.5;" x1="434.5" x2="721.5" y1="859.8906" y2="859.8906"/><text fill="#000000" font-family="sans-serif" font-size="14" lengthAdjust="spacing" textLength="197" x="439.5" y="876.8857">identification: String(UUID),</text><text fill="#000000" font-family="sans-serif" font-size="14" lengthAdjust="spacing" textLength="117" x="439.5" y="893.1826">id: String (UUID),</text></g><!--class IRSJobDetails--><g id="elem_IRSJobDetails"><rect codeLine="48" fill="#F1F1F1" height="227.2656" id="IRSJobDetails" rx="2.5" ry="2.5" style="stroke:#181818;stroke-width:0.5;" width="253" x="388.5" y="7"/><ellipse cx="462.75" cy="23" fill="#ADD1B2" rx="11" ry="11" style="stroke:#181818;stroke-width:1.0;"/><path d="M465.0938,18.6719 C464.1563,18.2344 463.5625,18.0938 462.6875,18.0938 C460.0625,18.0938 458.0625,20.1719 458.0625,22.8906 L458.0625,24.0156 C458.0625,26.5938 460.1719,28.4844 463.0625,28.4844 C464.2813,28.4844 465.4375,28.1875 466.1875,27.6406 C466.7656,27.2344 467.0938,26.7813 467.0938,26.3906 C467.0938,25.9375 466.7031,25.5469 466.2344,25.5469 C466.0156,25.5469 465.8125,25.625 465.625,25.8125 C465.1719,26.2969 465.1719,26.2969 464.9844,26.3906 C464.5625,26.6563 463.875,26.7813 463.1094,26.7813 C461.0625,26.7813 459.7656,25.6875 459.7656,23.9844 L459.7656,22.8906 C459.7656,21.1094 461.0156,19.7969 462.75,19.7969 C463.3281,19.7969 463.9375,19.9531 464.4063,20.2031 C464.8906,20.4844 465.0625,20.7031 465.1563,21.1094 C465.2188,21.5156 465.25,21.6406 465.3906,21.7656 C465.5313,21.9063 465.7656,22.0156 465.9844,22.0156 C466.25,22.0156 466.5156,21.875 466.6875,21.6563 C466.7969,21.5 466.8281,21.3125 466.8281,20.8906 L466.8281,19.4688 C466.8281,19.0313 466.8125,18.9063 466.7188,18.75 C466.5625,18.4844 466.2813,18.3438 465.9844,18.3438 C465.6875,18.3438 465.4844,18.4375 465.2656,18.75 L465.0938,18.6719 Z " fill="#000000"/><text fill="#000000" font-family="sans-serif" font-size="14" lengthAdjust="spacing" textLength="96" x="483.25" y="27.8467">IRSJobDetails</text><line style="stroke:#181818;stroke-width:0.5;" x1="389.5" x2="640.5" y1="39" y2="39"/><text fill="#000000" font-family="sans-serif" font-size="14" lengthAdjust="spacing" textLength="124" x="408.5" y="55.9951">Job State: String,</text><text fill="#000000" font-family="sans-serif" font-size="14" lengthAdjust="spacing" textLength="144" x="408.5" y="72.292">Exception: Boolean,</text><text fill="#000000" font-family="sans-serif" font-size="14" lengthAdjust="spacing" textLength="189" x="408.5" y="88.5889">Job created on: DateTime,</text><text fill="#000000" font-family="sans-serif" font-size="14" lengthAdjust="spacing" textLength="186" x="408.5" y="104.8857">Job started on: DateTime,</text><text fill="#000000" font-family="sans-serif" font-size="14" lengthAdjust="spacing" textLength="227" x="408.5" y="121.1826">Job last modified on: DateTime,</text><text fill="#000000" font-family="sans-serif" font-size="14" lengthAdjust="spacing" textLength="212" x="408.5" y="137.4795">Job completed on: DateTime,</text><text fill="#000000" font-family="sans-serif" font-size="14" lengthAdjust="spacing" textLength="161" x="408.5" y="153.7764">Job parameter: String,</text><ellipse cx="399.5" cy="166.7266" fill="none" rx="3" ry="3" style="stroke:#038048;stroke-width:1.0;"/><text fill="#000000" font-family="sans-serif" font-size="14" lengthAdjust="spacing" textLength="201" x="408.5" y="170.0732">Job summary: Array - String,</text><line style="stroke:#181818;stroke-width:0.5;" x1="389.5" x2="640.5" y1="177.375" y2="177.375"/><text fill="#000000" font-family="sans-serif" font-size="14" lengthAdjust="spacing" textLength="146" x="394.5" y="194.3701">Job ID: String (UUID),</text><text fill="#000000" font-family="sans-serif" font-size="14" lengthAdjust="spacing" textLength="209" x="394.5" y="210.667">Global Asset ID: String(UUID),</text><text fill="#000000" font-family="sans-serif" font-size="14" lengthAdjust="spacing" textLength="157" x="394.5" y="226.9639">Job owner: String (ID),</text></g><!--class jobSummary--><g id="elem_jobSummary"><rect codeLine="62" fill="#F1F1F1" height="113.1875" id="jobSummary" rx="2.5" ry="2.5" style="stroke:#181818;stroke-width:0.5;" width="203" x="150.5" y="64"/><ellipse cx="202.75" cy="80" fill="#ADD1B2" rx="11" ry="11" style="stroke:#181818;stroke-width:1.0;"/><path d="M205.0938,75.6719 C204.1563,75.2344 203.5625,75.0938 202.6875,75.0938 C200.0625,75.0938 198.0625,77.1719 198.0625,79.8906 L198.0625,81.0156 C198.0625,83.5938 200.1719,85.4844 203.0625,85.4844 C204.2813,85.4844 205.4375,85.1875 206.1875,84.6406 C206.7656,84.2344 207.0938,83.7813 207.0938,83.3906 C207.0938,82.9375 206.7031,82.5469 206.2344,82.5469 C206.0156,82.5469 205.8125,82.625 205.625,82.8125 C205.1719,83.2969 205.1719,83.2969 204.9844,83.3906 C204.5625,83.6563 203.875,83.7813 203.1094,83.7813 C201.0625,83.7813 199.7656,82.6875 199.7656,80.9844 L199.7656,79.8906 C199.7656,78.1094 201.0156,76.7969 202.75,76.7969 C203.3281,76.7969 203.9375,76.9531 204.4063,77.2031 C204.8906,77.4844 205.0625,77.7031 205.1563,78.1094 C205.2188,78.5156 205.25,78.6406 205.3906,78.7656 C205.5313,78.9063 205.7656,79.0156 205.9844,79.0156 C206.25,79.0156 206.5156,78.875 206.6875,78.6563 C206.7969,78.5 206.8281,78.3125 206.8281,77.8906 L206.8281,76.4688 C206.8281,76.0313 206.8125,75.9063 206.7188,75.75 C206.5625,75.4844 206.2813,75.3438 205.9844,75.3438 C205.6875,75.3438 205.4844,75.4375 205.2656,75.75 L205.0938,75.6719 Z " fill="#000000"/><text fill="#000000" font-family="sans-serif" font-size="14" lengthAdjust="spacing" textLength="90" x="223.25" y="84.8467">jobSummary</text><line style="stroke:#181818;stroke-width:0.5;" x1="151.5" x2="352.5" y1="96" y2="96"/><text fill="#000000" font-family="sans-serif" font-size="14" lengthAdjust="spacing" textLength="191" x="156.5" y="112.9951">asyncFetchedItems: Array,</text><text fill="#000000" font-family="sans-serif" font-size="14" lengthAdjust="spacing" textLength="124" x="156.5" y="129.292">running: Number,</text><text fill="#000000" font-family="sans-serif" font-size="14" lengthAdjust="spacing" textLength="149" x="156.5" y="145.5889">completed: Number,</text><text fill="#000000" font-family="sans-serif" font-size="14" lengthAdjust="spacing" textLength="110" x="156.5" y="161.8857">failed: Number,</text><line style="stroke:#181818;stroke-width:0.5;" x1="151.5" x2="352.5" y1="169.1875" y2="169.1875"/></g><!--class VisualizationNodeList--><g id="elem_VisualizationNodeList"><rect codeLine="69" fill="#F1F1F1" height="113.1875" id="VisualizationNodeList" rx="2.5" ry="2.5" style="stroke:#181818;stroke-width:0.5;" width="325" x="757.5" y="779"/><ellipse cx="839.25" cy="795" fill="#ADD1B2" rx="11" ry="11" style="stroke:#181818;stroke-width:1.0;"/><path d="M841.5938,790.6719 C840.6563,790.2344 840.0625,790.0938 839.1875,790.0938 C836.5625,790.0938 834.5625,792.1719 834.5625,794.8906 L834.5625,796.0156 C834.5625,798.5938 836.6719,800.4844 839.5625,800.4844 C840.7813,800.4844 841.9375,800.1875 842.6875,799.6406 C843.2656,799.2344 843.5938,798.7813 843.5938,798.3906 C843.5938,797.9375 843.2031,797.5469 842.7344,797.5469 C842.5156,797.5469 842.3125,797.625 842.125,797.8125 C841.6719,798.2969 841.6719,798.2969 841.4844,798.3906 C841.0625,798.6563 840.375,798.7813 839.6094,798.7813 C837.5625,798.7813 836.2656,797.6875 836.2656,795.9844 L836.2656,794.8906 C836.2656,793.1094 837.5156,791.7969 839.25,791.7969 C839.8281,791.7969 840.4375,791.9531 840.9063,792.2031 C841.3906,792.4844 841.5625,792.7031 841.6563,793.1094 C841.7188,793.5156 841.75,793.6406 841.8906,793.7656 C842.0313,793.9063 842.2656,794.0156 842.4844,794.0156 C842.75,794.0156 843.0156,793.875 843.1875,793.6563 C843.2969,793.5 843.3281,793.3125 843.3281,792.8906 L843.3281,791.4688 C843.3281,791.0313 843.3125,790.9063 843.2188,790.75 C843.0625,790.4844 842.7813,790.3438 842.4844,790.3438 C842.1875,790.3438 841.9844,790.4375 841.7656,790.75 L841.5938,790.6719 Z " fill="#000000"/><text fill="#000000" font-family="sans-serif" font-size="14" lengthAdjust="spacing" textLength="153" x="859.75" y="799.8467">VisualizationNodeList</text><line style="stroke:#181818;stroke-width:0.5;" x1="758.5" x2="1081.5" y1="811" y2="811"/><ellipse cx="768.5" cy="824.6484" fill="none" rx="3" ry="3" style="stroke:#038048;stroke-width:1.0;"/><text fill="#000000" font-family="sans-serif" font-size="14" lengthAdjust="spacing" textLength="235" x="777.5" y="827.9951">Specific asset IDs: Array - String,</text><text fill="#000000" font-family="sans-serif" font-size="14" lengthAdjust="spacing" textLength="299" x="777.5" y="844.292">AssemblyPartRelationship aspect: String,</text><text fill="#000000" font-family="sans-serif" font-size="14" lengthAdjust="spacing" textLength="178" x="777.5" y="860.5889">Submodel Payload: JSON,</text><text fill="#000000" font-family="sans-serif" font-size="14" lengthAdjust="spacing" textLength="260" x="777.5" y="876.8857">MaterialForRecycling aspect: String,</text><line style="stroke:#181818;stroke-width:0.5;" x1="758.5" x2="1081.5" y1="884.1875" y2="884.1875"/></g><!--class IRSResult--><g id="elem_IRSResult"><rect codeLine="76" fill="#F1F1F1" height="48" id="IRSResult" rx="2.5" ry="2.5" style="stroke:#181818;stroke-width:0.5;" width="100" x="300" y="565"/><ellipse cx="315" cy="581" fill="#ADD1B2" rx="11" ry="11" style="stroke:#181818;stroke-width:1.0;"/><path d="M317.3438,576.6719 C316.4063,576.2344 315.8125,576.0938 314.9375,576.0938 C312.3125,576.0938 310.3125,578.1719 310.3125,580.8906 L310.3125,582.0156 C310.3125,584.5938 312.4219,586.4844 315.3125,586.4844 C316.5313,586.4844 317.6875,586.1875 318.4375,585.6406 C319.0156,585.2344 319.3438,584.7813 319.3438,584.3906 C319.3438,583.9375 318.9531,583.5469 318.4844,583.5469 C318.2656,583.5469 318.0625,583.625 317.875,583.8125 C317.4219,584.2969 317.4219,584.2969 317.2344,584.3906 C316.8125,584.6563 316.125,584.7813 315.3594,584.7813 C313.3125,584.7813 312.0156,583.6875 312.0156,581.9844 L312.0156,580.8906 C312.0156,579.1094 313.2656,577.7969 315,577.7969 C315.5781,577.7969 316.1875,577.9531 316.6563,578.2031 C317.1406,578.4844 317.3125,578.7031 317.4063,579.1094 C317.4688,579.5156 317.5,579.6406 317.6406,579.7656 C317.7813,579.9063 318.0156,580.0156 318.2344,580.0156 C318.5,580.0156 318.7656,579.875 318.9375,579.6563 C319.0469,579.5 319.0781,579.3125 319.0781,578.8906 L319.0781,577.4688 C319.0781,577.0313 319.0625,576.9063 318.9688,576.75 C318.8125,576.4844 318.5313,576.3438 318.2344,576.3438 C317.9375,576.3438 317.7344,576.4375 317.5156,576.75 L317.3438,576.6719 Z " fill="#000000"/><text fill="#000000" font-family="sans-serif" font-size="14" lengthAdjust="spacing" textLength="68" x="329" y="585.8467">IRSResult</text><line style="stroke:#181818;stroke-width:0.5;" x1="301" x2="399" y1="597" y2="597"/><line style="stroke:#181818;stroke-width:0.5;" x1="301" x2="399" y1="605" y2="605"/></g><!--class submodelDescriptors--><g id="elem_submodelDescriptors"><rect codeLine="80" fill="#F1F1F1" height="162.0781" id="submodelDescriptors" rx="2.5" ry="2.5" style="stroke:#181818;stroke-width:0.5;" width="216" x="788" y="508"/><ellipse cx="816.5" cy="524" fill="#ADD1B2" rx="11" ry="11" style="stroke:#181818;stroke-width:1.0;"/><path d="M818.8438,519.6719 C817.9063,519.2344 817.3125,519.0938 816.4375,519.0938 C813.8125,519.0938 811.8125,521.1719 811.8125,523.8906 L811.8125,525.0156 C811.8125,527.5938 813.9219,529.4844 816.8125,529.4844 C818.0313,529.4844 819.1875,529.1875 819.9375,528.6406 C820.5156,528.2344 820.8438,527.7813 820.8438,527.3906 C820.8438,526.9375 820.4531,526.5469 819.9844,526.5469 C819.7656,526.5469 819.5625,526.625 819.375,526.8125 C818.9219,527.2969 818.9219,527.2969 818.7344,527.3906 C818.3125,527.6563 817.625,527.7813 816.8594,527.7813 C814.8125,527.7813 813.5156,526.6875 813.5156,524.9844 L813.5156,523.8906 C813.5156,522.1094 814.7656,520.7969 816.5,520.7969 C817.0781,520.7969 817.6875,520.9531 818.1563,521.2031 C818.6406,521.4844 818.8125,521.7031 818.9063,522.1094 C818.9688,522.5156 819,522.6406 819.1406,522.7656 C819.2813,522.9063 819.5156,523.0156 819.7344,523.0156 C820,523.0156 820.2656,522.875 820.4375,522.6563 C820.5469,522.5 820.5781,522.3125 820.5781,521.8906 L820.5781,520.4688 C820.5781,520.0313 820.5625,519.9063 820.4688,519.75 C820.3125,519.4844 820.0313,519.3438 819.7344,519.3438 C819.4375,519.3438 819.2344,519.4375 819.0156,519.75 L818.8438,519.6719 Z " fill="#000000"/><text fill="#000000" font-family="sans-serif" font-size="14" lengthAdjust="spacing" textLength="154" x="833.5" y="528.8467">submodelDescriptors</text><line style="stroke:#181818;stroke-width:0.5;" x1="789" x2="1003" y1="540" y2="540"/><text fill="#000000" font-family="sans-serif" font-size="14" lengthAdjust="spacing" textLength="191" x="794" y="556.9951">description: Array - String,</text><text fill="#000000" font-family="sans-serif" font-size="14" lengthAdjust="spacing" textLength="124" x="794" y="573.292">endpoints: Array,</text><text fill="#000000" font-family="sans-serif" font-size="14" lengthAdjust="spacing" textLength="204" x="794" y="589.5889">protocolInformation: String,</text><text fill="#000000" font-family="sans-serif" font-size="14" lengthAdjust="spacing" textLength="110" x="794" y="605.8857">idShort: String,</text><text fill="#000000" font-family="sans-serif" font-size="14" lengthAdjust="spacing" textLength="136" x="794" y="622.1826">semanticId: String,</text><text fill="#000000" font-family="sans-serif" font-size="14" lengthAdjust="spacing" textLength="182" x="794" y="638.4795">endpoints: Array - String,</text><line style="stroke:#181818;stroke-width:0.5;" x1="789" x2="1003" y1="645.7813" y2="645.7813"/><text fill="#000000" font-family="sans-serif" font-size="14" lengthAdjust="spacing" textLength="197" x="794" y="662.7764">identification: String(UUID),</text></g><!--class endpoints--><g id="elem_endpoints"><rect codeLine="90" fill="#F1F1F1" height="113.1875" id="endpoints" rx="2.5" ry="2.5" style="stroke:#181818;stroke-width:0.5;" width="279" x="756.5" y="294"/><ellipse cx="855.25" cy="310" fill="#ADD1B2" rx="11" ry="11" style="stroke:#181818;stroke-width:1.0;"/><path d="M857.5938,305.6719 C856.6563,305.2344 856.0625,305.0938 855.1875,305.0938 C852.5625,305.0938 850.5625,307.1719 850.5625,309.8906 L850.5625,311.0156 C850.5625,313.5938 852.6719,315.4844 855.5625,315.4844 C856.7813,315.4844 857.9375,315.1875 858.6875,314.6406 C859.2656,314.2344 859.5938,313.7813 859.5938,313.3906 C859.5938,312.9375 859.2031,312.5469 858.7344,312.5469 C858.5156,312.5469 858.3125,312.625 858.125,312.8125 C857.6719,313.2969 857.6719,313.2969 857.4844,313.3906 C857.0625,313.6563 856.375,313.7813 855.6094,313.7813 C853.5625,313.7813 852.2656,312.6875 852.2656,310.9844 L852.2656,309.8906 C852.2656,308.1094 853.5156,306.7969 855.25,306.7969 C855.8281,306.7969 856.4375,306.9531 856.9063,307.2031 C857.3906,307.4844 857.5625,307.7031 857.6563,308.1094 C857.7188,308.5156 857.75,308.6406 857.8906,308.7656 C858.0313,308.9063 858.2656,309.0156 858.4844,309.0156 C858.75,309.0156 859.0156,308.875 859.1875,308.6563 C859.2969,308.5 859.3281,308.3125 859.3281,307.8906 L859.3281,306.4688 C859.3281,306.0313 859.3125,305.9063 859.2188,305.75 C859.0625,305.4844 858.7813,305.3438 858.4844,305.3438 C858.1875,305.3438 857.9844,305.4375 857.7656,305.75 L857.5938,305.6719 Z " fill="#000000"/><text fill="#000000" font-family="sans-serif" font-size="14" lengthAdjust="spacing" textLength="73" x="875.75" y="314.8467">endpoints</text><line style="stroke:#181818;stroke-width:0.5;" x1="757.5" x2="1034.5" y1="326" y2="326"/><text fill="#000000" font-family="sans-serif" font-size="14" lengthAdjust="spacing" textLength="267" x="762.5" y="342.9951">protocolInformation: Object - String,</text><text fill="#000000" font-family="sans-serif" font-size="14" lengthAdjust="spacing" textLength="180" x="762.5" y="359.292">endpointAddress: String,</text><text fill="#000000" font-family="sans-serif" font-size="14" lengthAdjust="spacing" textLength="184" x="762.5" y="375.5889">endpointProtocol: String,</text><text fill="#000000" font-family="sans-serif" font-size="14" lengthAdjust="spacing" textLength="238" x="762.5" y="391.8857">endpointProtocolVersion: String,</text><line style="stroke:#181818;stroke-width:0.5;" x1="757.5" x2="1034.5" y1="399.1875" y2="399.1875"/></g><!--class submodelTombstones--><g id="elem_submodelTombstones"><rect codeLine="97" fill="#F1F1F1" height="80.5938" id="submodelTombstones" rx="2.5" ry="2.5" style="stroke:#181818;stroke-width:0.5;" width="192" x="435" y="548.5"/><ellipse cx="450" cy="564.5" fill="#ADD1B2" rx="11" ry="11" style="stroke:#181818;stroke-width:1.0;"/><path d="M452.3438,560.1719 C451.4063,559.7344 450.8125,559.5938 449.9375,559.5938 C447.3125,559.5938 445.3125,561.6719 445.3125,564.3906 L445.3125,565.5156 C445.3125,568.0938 447.4219,569.9844 450.3125,569.9844 C451.5313,569.9844 452.6875,569.6875 453.4375,569.1406 C454.0156,568.7344 454.3438,568.2813 454.3438,567.8906 C454.3438,567.4375 453.9531,567.0469 453.4844,567.0469 C453.2656,567.0469 453.0625,567.125 452.875,567.3125 C452.4219,567.7969 452.4219,567.7969 452.2344,567.8906 C451.8125,568.1563 451.125,568.2813 450.3594,568.2813 C448.3125,568.2813 447.0156,567.1875 447.0156,565.4844 L447.0156,564.3906 C447.0156,562.6094 448.2656,561.2969 450,561.2969 C450.5781,561.2969 451.1875,561.4531 451.6563,561.7031 C452.1406,561.9844 452.3125,562.2031 452.4063,562.6094 C452.4688,563.0156 452.5,563.1406 452.6406,563.2656 C452.7813,563.4063 453.0156,563.5156 453.2344,563.5156 C453.5,563.5156 453.7656,563.375 453.9375,563.1563 C454.0469,563 454.0781,562.8125 454.0781,562.3906 L454.0781,560.9688 C454.0781,560.5313 454.0625,560.4063 453.9688,560.25 C453.8125,559.9844 453.5313,559.8438 453.2344,559.8438 C452.9375,559.8438 452.7344,559.9375 452.5156,560.25 L452.3438,560.1719 Z " fill="#000000"/><text fill="#000000" font-family="sans-serif" font-size="14" lengthAdjust="spacing" textLength="160" x="464" y="569.3467">submodelTombstones</text><line style="stroke:#181818;stroke-width:0.5;" x1="436" x2="626" y1="580.5" y2="580.5"/><text fill="#000000" font-family="sans-serif" font-size="14" lengthAdjust="spacing" textLength="164" x="441" y="597.4951">timestamp: DateTime,</text><text fill="#000000" font-family="sans-serif" font-size="14" lengthAdjust="spacing" textLength="132" x="441" y="613.792">Error Details: json,</text><line style="stroke:#181818;stroke-width:0.5;" x1="436" x2="626" y1="621.0938" y2="621.0938"/></g><!--class specificAssetIds--><g id="elem_specificAssetIds"><rect codeLine="102" fill="#F1F1F1" height="113.1875" id="specificAssetIds" rx="2.5" ry="2.5" style="stroke:#181818;stroke-width:0.5;" width="148" x="1039" y="532.5"/><ellipse cx="1054" cy="548.5" fill="#ADD1B2" rx="11" ry="11" style="stroke:#181818;stroke-width:1.0;"/><path d="M1056.3438,544.1719 C1055.4063,543.7344 1054.8125,543.5938 1053.9375,543.5938 C1051.3125,543.5938 1049.3125,545.6719 1049.3125,548.3906 L1049.3125,549.5156 C1049.3125,552.0938 1051.4219,553.9844 1054.3125,553.9844 C1055.5313,553.9844 1056.6875,553.6875 1057.4375,553.1406 C1058.0156,552.7344 1058.3438,552.2813 1058.3438,551.8906 C1058.3438,551.4375 1057.9531,551.0469 1057.4844,551.0469 C1057.2656,551.0469 1057.0625,551.125 1056.875,551.3125 C1056.4219,551.7969 1056.4219,551.7969 1056.2344,551.8906 C1055.8125,552.1563 1055.125,552.2813 1054.3594,552.2813 C1052.3125,552.2813 1051.0156,551.1875 1051.0156,549.4844 L1051.0156,548.3906 C1051.0156,546.6094 1052.2656,545.2969 1054,545.2969 C1054.5781,545.2969 1055.1875,545.4531 1055.6563,545.7031 C1056.1406,545.9844 1056.3125,546.2031 1056.4063,546.6094 C1056.4688,547.0156 1056.5,547.1406 1056.6406,547.2656 C1056.7813,547.4063 1057.0156,547.5156 1057.2344,547.5156 C1057.5,547.5156 1057.7656,547.375 1057.9375,547.1563 C1058.0469,547 1058.0781,546.8125 1058.0781,546.3906 L1058.0781,544.9688 C1058.0781,544.5313 1058.0625,544.4063 1057.9688,544.25 C1057.8125,543.9844 1057.5313,543.8438 1057.2344,543.8438 C1056.9375,543.8438 1056.7344,543.9375 1056.5156,544.25 L1056.3438,544.1719 Z " fill="#000000"/><text fill="#000000" font-family="sans-serif" font-size="14" lengthAdjust="spacing" textLength="116" x="1068" y="553.3467">specificAssetIds</text><line style="stroke:#181818;stroke-width:0.5;" x1="1040" x2="1186" y1="564.5" y2="564.5"/><text fill="#000000" font-family="sans-serif" font-size="14" lengthAdjust="spacing" textLength="83" x="1045" y="581.4951">key: String,</text><text fill="#000000" font-family="sans-serif" font-size="14" lengthAdjust="spacing" textLength="123" x="1045" y="597.792">subjectId: String,</text><text fill="#000000" font-family="sans-serif" font-size="14" lengthAdjust="spacing" textLength="94" x="1045" y="614.0889">value: String,</text><text fill="#000000" font-family="sans-serif" font-size="14" lengthAdjust="spacing" textLength="136" x="1045" y="630.3857">semanticId: String,</text><line style="stroke:#181818;stroke-width:0.5;" x1="1040" x2="1186" y1="637.6875" y2="637.6875"/></g><!--link jobRequest to job--><g id="link_jobRequest_job"><path codeLine="110" d="M234.35,374.607 C224.199,396.633 208.089,431.586 191.822,466.881 " fill="none" id="jobRequest-job" style="stroke:#181818;stroke-width:1.0;"/></g><!--reverse link job to jobState--><g id="link_job_jobState"><path codeLine="111" d="M112.2,716.5 C108.65,735.369 105.1258,754.103 101.9654,770.901 " fill="none" id="job-backto-jobState" style="stroke:#181818;stroke-width:1.0;"/><polygon fill="#181818" points="113.202,711.176,107.6069,719.2813,112.2775,716.0898,115.469,720.7604,113.202,711.176" style="stroke:#181818;stroke-width:1.0;"/></g><!--reverse link job to jobList--><g id="link_job_jobList"><path codeLine="112" d="M201.39,715.888 C212.857,737.965 224.242,759.883 234.047,778.76 " fill="none" id="job-backto-jobList" style="stroke:#181818;stroke-width:1.0;"/><polygon fill="#181818" points="198.942,711.176,199.54,721.0067,201.2464,715.6133,206.6397,717.3197,198.942,711.176" style="stroke:#181818;stroke-width:1.0;"/></g><!--link jobRequest to Visualization--><g id="link_jobRequest_Visualization"><path codeLine="114" d="M302.342,350.5 C321.091,350.5 339.841,350.5 358.59,350.5 " fill="none" id="jobRequest-to-Visualization" style="stroke:#181818;stroke-width:1.0;"/><polygon fill="#181818" points="363.879,350.5,354.879,346.5,358.879,350.5,354.879,354.5,363.879,350.5" style="stroke:#181818;stroke-width:1.0;"/></g><!--reverse link IRSResult to VisualizationNode--><g id="link_IRSResult_VisualizationNode"><path codeLine="116" d="M361.708,617.81 C373.476,643.713 393.376,682.509 418,711 C436.7,732.637 459.71,753.015 482.39,770.742 " fill="none" id="IRSResult-backto-VisualizationNode" style="stroke:#181818;stroke-width:1.0;"/><polygon fill="#181818" points="359.606,613.128,359.6443,622.9768,361.6544,617.6891,366.9421,619.6993,359.606,613.128" style="stroke:#181818;stroke-width:1.0;"/></g><!--reverse link Visualization to submodelTombstones--><g id="link_Visualization_submodelTombstones"><path codeLine="117" d="M447.078,387.519 C465.202,430.815 495.519,503.239 514.325,548.166 " fill="none" id="Visualization-backto-submodelTombstones" style="stroke:#181818;stroke-width:1.0;"/><polygon fill="#181818" points="445.146,382.905,444.9308,392.7515,447.0764,387.5173,452.3106,389.6629,445.146,382.905" style="stroke:#181818;stroke-width:1.0;"/></g><!--reverse link Visualization to IRSResult--><g id="link_Visualization_IRSResult"><path codeLine="118" d="M419.401,387.837 C402.351,437.012 372.419,523.34 358.09,564.667 " fill="none" id="Visualization-backto-IRSResult" style="stroke:#181818;stroke-width:1.0;"/><polygon fill="#181818" points="421.111,382.905,414.382,390.0967,419.4721,387.6288,421.94,392.7189,421.111,382.905" style="stroke:#181818;stroke-width:1.0;"/></g><!--link IRSJobDetails to Visualization--><g id="link_IRSJobDetails_Visualization"><path codeLine="119" d="M473.986,234.164 C463.507,262.952 452.986,291.853 445.097,313.523 " fill="none" id="IRSJobDetails-to-Visualization" style="stroke:#181818;stroke-width:1.0;"/><polygon fill="#181818" points="443.353,318.313,450.1898,311.2237,445.063,313.6145,442.6722,308.4877,443.353,318.313" style="stroke:#181818;stroke-width:1.0;"/></g><!--reverse link VisualizationNode to VisualizationNodeList--><g id="link_VisualizationNode_VisualizationNodeList"><path codeLine="121" d="M727.766,835.5 C737.614,835.5 747.463,835.5 757.312,835.5 " fill="none" id="VisualizationNode-backto-VisualizationNodeList" style="stroke:#181818;stroke-width:1.0;"/><polygon fill="#181818" points="722.615,835.5,731.615,839.5,727.615,835.5,731.615,831.5,722.615,835.5" style="stroke:#181818;stroke-width:1.0;"/></g><!--link jobSummary to IRSJobDetails--><g id="link_jobSummary_IRSJobDetails"><path codeLine="124" d="M353.707,120.5 C363.543,120.5 373.38,120.5 383.216,120.5 " fill="none" id="jobSummary-to-IRSJobDetails" style="stroke:#181818;stroke-width:1.0;"/><polygon fill="#181818" points="388.36,120.5,379.36,116.5,383.36,120.5,379.36,124.5,388.36,120.5" style="stroke:#181818;stroke-width:1.0;"/></g><!--link IRSJobDetails to VisualizationNode--><g id="link_IRSJobDetails_VisualizationNode"><path codeLine="125" d="M569.158,234.107 C597.945,300.254 630.347,386.449 645,467 C664.408,573.694 671.676,605.888 645,711 C640.228,729.802 631.956,748.84 622.818,766.153 " fill="none" id="IRSJobDetails-to-VisualizationNode" style="stroke:#181818;stroke-width:1.0;"/><polygon fill="#181818" points="620.22,770.989,628.0041,764.9551,622.5871,766.5848,620.9574,761.1678,620.22,770.989" style="stroke:#181818;stroke-width:1.0;"/></g><!--link submodelDescriptors to VisualizationNodeList--><g id="link_submodelDescriptors_VisualizationNodeList"><path codeLine="127" d="M903.858,670.058 C907.154,703.63 910.924,742.041 913.992,773.292 " fill="none" id="submodelDescriptors-to-VisualizationNodeList" style="stroke:#181818;stroke-width:1.0;"/><polygon fill="#181818" points="914.517,778.641,917.6184,769.2932,914.0284,773.6649,909.6567,770.075,914.517,778.641" style="stroke:#181818;stroke-width:1.0;"/></g><!--link specificAssetIds to VisualizationNodeList--><g id="link_specificAssetIds_VisualizationNodeList"><path codeLine="128" d="M1072.07,645.519 C1056.59,666.229 1038.68,689.842 1022,711 C1005.376,732.088 986.781,754.838 970.067,774.997 " fill="none" id="specificAssetIds-to-VisualizationNodeList" style="stroke:#181818;stroke-width:1.0;"/><polygon fill="#181818" points="966.75,778.993,975.5758,774.622,969.9432,775.1455,969.4197,769.5129,966.75,778.993" style="stroke:#181818;stroke-width:1.0;"/></g><!--link endpoints to submodelDescriptors--><g id="link_endpoints_submodelDescriptors"><path codeLine="130" d="M896,407.248 C896,435.636 896,470.769 896,502.49 " fill="none" id="endpoints-to-submodelDescriptors" style="stroke:#181818;stroke-width:1.0;"/><polygon fill="#181818" points="896,507.55,900,498.55,896,502.55,892,498.55,896,507.55" style="stroke:#181818;stroke-width:1.0;"/></g><!--SRC=[ZLN1RgCm4BtxAwmzfIhvWQYgb6reHPKc4IIzhWmuYRl6PctJDbljl-yO29ZWhFPcPiRZDs_U38Hp-L6mJoOE26MSQ8tVP1hJNnNL1d-XFuuLFeakQMRq32T6mPK0fR9OiZtDJXcdlJMJd4FS_1pzNKfEYGXGpXHOc1HzR4vBSvpXLLMaL0Nem6LA-5nhQgBy78Kdkrsqk0dGhSMH668goFhS72cUV7jaWkaZpRz1JAOe6FCrlB60mvOLD42ggMWNBsTu5qS1qeQeKHGaxpAvTlaXgEeXkwGq2BvGj8gsqNmPmE779bu_nM6I1EXX_R9PXjjm0SVvwY5SsbCOn-juc6N9QhRxYWC4rS4PGBf0h34KkMiwip42zyfqHJZxJIpVa7ooe6brE5WwtndzkBaIkPAvhSVRXm2nd0h3zYmZRXUxzjY6Mszx3s3DbI8dFEqIw2eju0M-e3fJh3HIUOBOkFCTs2XEW8K5DOHn3K0j9T5Y5FzKuySr4CT_ThVi6aUquMS6KgohwlHgmrezOIakEz5goEC1f0P3dS25rv_9ekJKVtSWDZpfu9P4aGBkE4AynJMCgYY8Eerf7EYq2GB2C2Rw9B97QZBGUMHeSUv0WC6fAY7WTZ-Hk4Vh6lV0lskvhgPMtBSuQTK109gkU5fl6rQa_BG1QcFAwoJwo4hSh9w-zgGL4jwG4vS4a3mdwrM0Ne1CnGX_b2gkzv9byVAogwQOwefRWBtL8rBmv-rNBP5Bt5JafMJ2T5oYKaaZOHD6OYzLGOPRZ-N9KIhpluC5d11mP-ueNhxeQtmN0_2zUDRf6n3ZgMEUvufgFNvkqwQvxdcbIW-A7V6wbKMgZHJKuZAWV9YaedG78LHAAjnE-Go_QIdSF1Th1hByfAUPksHiMGvR6BqJNZdJxcCKyYFdxpUTsi6n5dpNdEkDuHgij8TtxeVwHwXNcBqp6WuqNDCsniFIHLGTrYL6mvKu7MCOB_YxwPKvRIWuRmj8DKn- -TQzv-U1V4j-3Aj_SjJEVyJsig-ZF2_z1G00]--></g></svg>