<?xml version="1.0" encoding="UTF-8" standalone="no"?><svg xmlns="http://www.w3.org/2000/svg" xmlns:xlink="http://www.w3.org/1999/xlink" contentStyleType="text/css" height="919px" preserveAspectRatio="none" style="width:623px;height:919px;background:#FFFFFF;" version="1.1" viewBox="0 0 623 919" width="623px" zoomAndPan="magnify"><defs/><g><text fill="#000000" font-family="sans-serif" font-size="14" font-weight="bold" lengthAdjust="spacing" textLength="129" x="240" y="22.9951">IRS-DV app flow</text><!--entity User--><g id="elem_User"><ellipse cx="168" cy="59.2969" fill="#F1F1F1" rx="16" ry="16" style="stroke:#181818;stroke-width:1.5;"/><path d="M168,79.2969 C172,79.2969 175,79.2969 179,75.2969 C187,75.2969 195,83.2969 195,91.2969 L195,95.2969 C195,99.2969 191,103.2969 187,103.2969 L149,103.2969 C145,103.2969 141,99.2969 141,95.2969 L141,91.2969 C141,83.2969 149,75.2969 157,75.2969 C161,79.2969 164,79.2969 168,79.2969 " fill="#F1F1F1" style="stroke:#181818;stroke-width:1.5;"/><text fill="#000000" font-family="sans-serif" font-size="14" lengthAdjust="spacing" textLength="30" x="153" y="117.792">user</text></g><!--entity login--><g id="elem_login"><polygon fill="#F1F1F1" points="16,298.7969,26,288.7969,320,288.7969,320,325.0938,310,335.0938,16,335.0938,16,298.7969" style="stroke:#181818;stroke-width:0.5;"/><line style="stroke:#181818;stroke-width:0.5;" x1="310" x2="320" y1="298.7969" y2="288.7969"/><line style="stroke:#181818;stroke-width:0.5;" x1="16" x2="310" y1="298.7969" y2="298.7969"/><line style="stroke:#181818;stroke-width:0.5;" x1="310" x2="310" y1="298.7969" y2="335.0938"/><text fill="#000000" font-family="sans-serif" font-size="14" lengthAdjust="spacing" textLength="264" x="31" y="321.792">Login through the Catena-X network</text></g><!--entity env--><g id="elem_env"><polygon fill="#F1F1F1" points="76.5,191.7969,86.5,181.7969,259.5,181.7969,259.5,218.0938,249.5,228.0938,76.5,228.0938,76.5,191.7969" style="stroke:#181818;stroke-width:0.5;"/><line style="stroke:#181818;stroke-width:0.5;" x1="249.5" x2="259.5" y1="191.7969" y2="181.7969"/><line style="stroke:#181818;stroke-width:0.5;" x1="76.5" x2="249.5" y1="191.7969" y2="191.7969"/><line style="stroke:#181818;stroke-width:0.5;" x1="249.5" x2="249.5" y1="191.7969" y2="228.0938"/><text fill="#000000" font-family="sans-serif" font-size="14" lengthAdjust="spacing" textLength="143" x="91.5" y="214.792">Select environment</text></g><!--entity fill--><g id="elem_fill"><polygon fill="#F1F1F1" points="94,421.7969,104,411.7969,242,411.7969,242,448.0938,232,458.0938,94,458.0938,94,421.7969" style="stroke:#181818;stroke-width:0.5;"/><line style="stroke:#181818;stroke-width:0.5;" x1="232" x2="242" y1="421.7969" y2="411.7969"/><line style="stroke:#181818;stroke-width:0.5;" x1="94" x2="232" y1="421.7969" y2="421.7969"/><line style="stroke:#181818;stroke-width:0.5;" x1="232" x2="232" y1="421.7969" y2="458.0938"/><text fill="#000000" font-family="sans-serif" font-size="14" lengthAdjust="spacing" textLength="108" x="109" y="444.792">Fill parameters</text></g><!--entity store--><g id="elem_store"><polygon fill="#F1F1F1" points="20,544.7969,30,534.7969,316,534.7969,316,571.0938,306,581.0938,20,581.0938,20,544.7969" style="stroke:#181818;stroke-width:0.5;"/><line style="stroke:#181818;stroke-width:0.5;" x1="306" x2="316" y1="544.7969" y2="534.7969"/><line style="stroke:#181818;stroke-width:0.5;" x1="20" x2="306" y1="544.7969" y2="544.7969"/><line style="stroke:#181818;stroke-width:0.5;" x1="306" x2="306" y1="544.7969" y2="581.0938"/><text fill="#000000" font-family="sans-serif" font-size="14" lengthAdjust="spacing" textLength="256" x="35" y="567.792">Item Relationship Service Job Store</text></g><!--entity completed--><g id="elem_completed"><polygon fill="#F1F1F1" points="251.5,651.7969,261.5,641.7969,372.5,641.7969,372.5,678.0938,362.5,688.0938,251.5,688.0938,251.5,651.7969" style="stroke:#181818;stroke-width:0.5;"/><line style="stroke:#181818;stroke-width:0.5;" x1="362.5" x2="372.5" y1="651.7969" y2="641.7969"/><line style="stroke:#181818;stroke-width:0.5;" x1="251.5" x2="362.5" y1="651.7969" y2="651.7969"/><line style="stroke:#181818;stroke-width:0.5;" x1="362.5" x2="362.5" y1="651.7969" y2="688.0938"/><text fill="#000000" font-family="sans-serif" font-size="14" lengthAdjust="spacing" textLength="81" x="266.5" y="674.792">Completed</text></g><!--entity cancel--><g id="elem_cancel"><polygon fill="#F1F1F1" points="500,544.7969,510,534.7969,606,534.7969,606,571.0938,596,581.0938,500,581.0938,500,544.7969" style="stroke:#181818;stroke-width:0.5;"/><line style="stroke:#181818;stroke-width:0.5;" x1="596" x2="606" y1="544.7969" y2="534.7969"/><line style="stroke:#181818;stroke-width:0.5;" x1="500" x2="596" y1="544.7969" y2="544.7969"/><line style="stroke:#181818;stroke-width:0.5;" x1="596" x2="596" y1="544.7969" y2="581.0938"/><text fill="#000000" font-family="sans-serif" font-size="14" lengthAdjust="spacing" textLength="66" x="515" y="567.792">Canceled</text></g><!--entity init--><g id="elem_init"><polygon fill="#F1F1F1" points="351,544.7969,361,534.7969,465,534.7969,465,571.0938,455,581.0938,351,581.0938,351,544.7969" style="stroke:#181818;stroke-width:0.5;"/><line style="stroke:#181818;stroke-width:0.5;" x1="455" x2="465" y1="544.7969" y2="534.7969"/><line style="stroke:#181818;stroke-width:0.5;" x1="351" x2="455" y1="544.7969" y2="544.7969"/><line style="stroke:#181818;stroke-width:0.5;" x1="455" x2="455" y1="544.7969" y2="581.0938"/><text fill="#000000" font-family="sans-serif" font-size="14" lengthAdjust="spacing" textLength="74" x="366" y="567.792">Initializing</text></g><!--entity ui--><g id="elem_ui"><polygon fill="#F1F1F1" points="247,758.7969,257,748.7969,377,748.7969,377,785.0938,367,795.0938,247,795.0938,247,758.7969" style="stroke:#181818;stroke-width:0.5;"/><line style="stroke:#181818;stroke-width:0.5;" x1="367" x2="377" y1="758.7969" y2="748.7969"/><line style="stroke:#181818;stroke-width:0.5;" x1="247" x2="367" y1="758.7969" y2="758.7969"/><line style="stroke:#181818;stroke-width:0.5;" x1="367" x2="367" y1="758.7969" y2="795.0938"/><text fill="#000000" font-family="sans-serif" font-size="14" lengthAdjust="spacing" textLength="90" x="262" y="781.792">Visualization</text></g><!--entity details--><g id="elem_details"><polygon fill="#F1F1F1" points="159,865.7969,169,855.7969,465,855.7969,465,892.0938,455,902.0938,159,902.0938,159,865.7969" style="stroke:#181818;stroke-width:0.5;"/><line style="stroke:#181818;stroke-width:0.5;" x1="455" x2="465" y1="865.7969" y2="855.7969"/><line style="stroke:#181818;stroke-width:0.5;" x1="159" x2="455" y1="865.7969" y2="865.7969"/><line style="stroke:#181818;stroke-width:0.5;" x1="455" x2="455" y1="865.7969" y2="902.0938"/><text fill="#000000" font-family="sans-serif" font-size="14" lengthAdjust="spacing" textLength="266" x="174" y="888.792">Item Relationship Service Job Details</text></g><!--link User to env--><g id="link_User_env"><path d="M168,121.0739 C168,139.0439 168,159.9789 168,176.2919 " fill="none" id="User-to-env" style="stroke:#181818;stroke-width:1.0;"/><polygon fill="#181818" points="168,181.6359,172,172.6359,168,176.6359,164,172.6359,168,181.6359" style="stroke:#181818;stroke-width:1.0;"/></g><!--link env to login--><g id="link_env_login"><path d="M168,227.8079 C168,243.9399 168,265.9479 168,283.2469 " fill="none" id="env-to-login" style="stroke:#181818;stroke-width:1.0;"/><polygon fill="#181818" points="168,288.4529,172,279.4529,168,283.4529,164,279.4529,168,288.4529" style="stroke:#181818;stroke-width:1.0;"/></g><!--link login to fill--><g id="link_login_fill"><path d="M168,334.9899 C168,355.2019 168,385.1039 168,406.7159 " fill="none" id="login-to-fill" style="stroke:#181818;stroke-width:1.0;"/><polygon fill="#181818" points="168,411.7439,172,402.7439,168,406.7439,164,402.7439,168,411.7439" style="stroke:#181818;stroke-width:1.0;"/><text fill="#000000" font-family="sans-serif" font-size="13" lengthAdjust="spacing" textLength="51" x="169" y="377.8638">success</text></g><!--link fill to store--><g id="link_fill_store"><path d="M168,457.9899 C168,478.2019 168,508.1039 168,529.7159 " fill="none" id="fill-to-store" style="stroke:#181818;stroke-width:1.0;"/><polygon fill="#181818" points="168,534.7439,172,525.7439,168,529.7439,164,525.7439,168,534.7439" style="stroke:#181818;stroke-width:1.0;"/><text fill="#000000" font-family="sans-serif" font-size="13" lengthAdjust="spacing" textLength="101" x="169" y="500.8638">Build data chain</text></g><!--link store to completed--><g id="link_store_completed"><path d="M198.187,580.8079 C221.264,597.6349 253.11,620.8559 277.248,638.4569 " fill="none" id="store-to-completed" style="stroke:#181818;stroke-width:1.0;"/><polygon fill="#181818" points="281.357,641.4529,276.4415,632.9184,277.3169,638.5071,271.7282,639.3825,281.357,641.4529" style="stroke:#181818;stroke-width:1.0;"/></g><!--link store to cancel--><g id="link_store_cancel"><path d="M212.325,534.7459 C271.095,507.3119 377.625,468.5039 465.5,496.2969 C487.533,503.2649 508.823,517.9929 524.885,531.2889 " fill="none" id="store-to-cancel" style="stroke:#181818;stroke-width:1.0;"/><polygon fill="#181818" points="528.853,534.6329,524.5483,525.7746,525.0295,531.4109,519.3932,531.8921,528.853,534.6329" style="stroke:#181818;stroke-width:1.0;"/></g><!--link store to init--><g id="link_store_init"><path d="M316.125,557.7969 C326.007,557.7969 335.888,557.7969 345.77,557.7969 " fill="none" id="store-to-init" style="stroke:#181818;stroke-width:1.0;"/><polygon fill="#181818" points="350.937,557.7969,341.937,553.7969,345.937,557.7969,341.937,561.7969,350.937,557.7969" style="stroke:#181818;stroke-width:1.0;"/></g><!--link init to cancel--><g id="link_init_cancel"><path d="M465.207,557.7969 C475.039,557.7969 484.871,557.7969 494.703,557.7969 " fill="none" id="init-to-cancel" style="stroke:#181818;stroke-width:1.0;"/><polygon fill="#181818" points="499.844,557.7969,490.844,553.7969,494.844,557.7969,490.844,561.7969,499.844,557.7969" style="stroke:#181818;stroke-width:1.0;"/></g><!--link init to completed--><g id="link_init_completed"><path d="M387.875,580.8079 C372.745,597.3569 351.96,620.0899 335.97,637.5799 " fill="none" id="init-to-completed" style="stroke:#181818;stroke-width:1.0;"/><polygon fill="#181818" points="332.429,641.4529,341.4544,637.5105,335.8032,637.763,335.5506,632.1118,332.429,641.4529" style="stroke:#181818;stroke-width:1.0;"/></g><!--link completed to ui--><g id="link_completed_ui"><path d="M312,687.8079 C312,703.9399 312,725.9479 312,743.2469 " fill="none" id="completed-to-ui" style="stroke:#181818;stroke-width:1.0;"/><polygon fill="#181818" points="312,748.4529,316,739.4529,312,743.4529,308,739.4529,312,748.4529" style="stroke:#181818;stroke-width:1.0;"/></g><!--link ui to details--><g id="link_ui_details"><path d="M312,794.8079 C312,810.9397 312,832.948 312,850.247 " fill="none" id="ui-to-details" style="stroke:#181818;stroke-width:1.0;"/><polygon fill="#181818" points="312,855.4528,316,846.4528,312,850.4528,308,846.4528,312,855.4528" style="stroke:#181818;stroke-width:1.0;"/></g><!--SRC=[ZP0nRiCm34LtdOBexWjaoD041L9qYj6WAoipCH5PCYGgGNlwIhISebi7I_nyfCpFT6K_OyG9q4g8lNmv0hnJ2XCP8ooEDd0uzjt-13ZFS7RXRanE504JlDVR-30GFBs52tkGCOPy6SjDi4CXZzq7U99xYDUdsk9gMMlfoP4L87_Z6Fn4NhIaw5Rmmiw1ZaT2CIazbrp31w49ZkHGEFWqyWmznHjRWjVm2NtnGzgIQjHwTc6QNNbjK69NjLBqjWpLe8hrNvw5qV4t-ujIBed6JfnoHJg7mip_6d5FWkmMNyCI6sDqgrstrKMKhuRBslHKLBS0i86KhQMKZEeArEi6dZEx0GOK13jYQTMyLlnwRhdjwlIXrLizYcXiKN_Q7v7cY-NC6ZKdFm00]--></g></svg>