<?xml version="1.0" encoding="UTF-8" standalone="no"?><svg xmlns="http://www.w3.org/2000/svg" xmlns:xlink="http://www.w3.org/1999/xlink" contentStyleType="text/css" height="338px" preserveAspectRatio="none" style="width:792px;height:338px;background:#FFFFFF;" version="1.1" viewBox="0 0 792 338" width="792px" zoomAndPan="magnify"><defs/><g><!--cluster parameters--><g id="cluster_parameters"><rect fill="none" height="253" rx="2.5" ry="2.5" style="stroke:#181818;stroke-width:1.0;" width="567" x="7.8002" y="79.504"/><rect fill="none" height="10" style="stroke:#181818;stroke-width:1.0;" width="15" x="554.8002" y="84.504"/><rect fill="none" height="2" style="stroke:#181818;stroke-width:1.0;" width="4" x="552.8002" y="86.504"/><rect fill="none" height="2" style="stroke:#181818;stroke-width:1.0;" width="4" x="552.8002" y="90.504"/><text fill="#000000" font-family="sans-serif" font-size="14" font-style="italic" lengthAdjust="spacing" textLength="94" x="244.3002" y="105.4991">«conponent»</text><text fill="#000000" font-family="sans-serif" font-size="14" font-weight="bold" lengthAdjust="spacing" textLength="123" x="229.8002" y="121.796">IRSJobAddForm</text></g><rect fill="#F1F1F1" height="162.375" style="stroke:#181818;stroke-width:0.5;" width="483" x="59.3002" y="142.504"/><text fill="#000000" font-family="sans-serif" font-size="14" lengthAdjust="spacing" textLength="34" x="283.8002" y="157.4991">JSON</text><line style="stroke:#181818;stroke-width:1.0;" x1="176.3002" x2="176.3002" y1="162.8009" y2="304.879"/><line style="stroke:#181818;stroke-width:1.0;" x1="59.3002" x2="542.3002" y1="162.8009" y2="162.8009"/><text fill="#000000" font-family="sans-serif" font-size="14" lengthAdjust="spacing" textLength="56" x="64.3002" y="177.796">aspects</text><text fill="#000000" font-family="sans-serif" font-size="14" lengthAdjust="spacing" textLength="189" x="181.3002" y="177.796">AssemblyPartRelationship</text><line style="stroke:#181818;stroke-width:1.0;" x1="176.3002" x2="542.3002" y1="183.0978" y2="183.0978"/><text fill="#000000" font-family="sans-serif" font-size="14" lengthAdjust="spacing" textLength="146" x="181.3002" y="198.0929">SerialPartTypization</text><line style="stroke:#181818;stroke-width:1.0;" x1="59.3002" x2="542.3002" y1="203.3946" y2="203.3946"/><text fill="#000000" font-family="sans-serif" font-size="14" lengthAdjust="spacing" textLength="97" x="64.3002" y="218.3897">bomLifecycle</text><text fill="#000000" font-family="sans-serif" font-size="14" lengthAdjust="spacing" textLength="48" x="181.3002" y="218.3897">asBuilt</text><line style="stroke:#181818;stroke-width:1.0;" x1="59.3002" x2="542.3002" y1="223.6915" y2="223.6915"/><text fill="#000000" font-family="sans-serif" font-size="14" lengthAdjust="spacing" textLength="107" x="64.3002" y="238.6866">collectAspects</text><text fill="#000000" font-family="sans-serif" font-size="14" lengthAdjust="spacing" textLength="30" x="181.3002" y="238.6866">true</text><line style="stroke:#181818;stroke-width:1.0;" x1="59.3002" x2="542.3002" y1="243.9884" y2="243.9884"/><text fill="#000000" font-family="sans-serif" font-size="14" lengthAdjust="spacing" textLength="65" x="64.3002" y="258.9835">direction</text><text fill="#000000" font-family="sans-serif" font-size="14" lengthAdjust="spacing" textLength="72" x="181.3002" y="258.9835">downward</text><line style="stroke:#181818;stroke-width:1.0;" x1="59.3002" x2="542.3002" y1="264.2853" y2="264.2853"/><text fill="#000000" font-family="sans-serif" font-size="14" lengthAdjust="spacing" textLength="44" x="64.3002" y="279.2804">depth</text><text fill="#000000" font-family="sans-serif" font-size="14" lengthAdjust="spacing" textLength="18" x="181.3002" y="279.2804">10</text><line style="stroke:#181818;stroke-width:1.0;" x1="59.3002" x2="542.3002" y1="284.5821" y2="284.5821"/><text fill="#000000" font-family="sans-serif" font-size="14" lengthAdjust="spacing" textLength="97" x="64.3002" y="299.5772">globalAssetId</text><text fill="#000000" font-family="sans-serif" font-size="14" lengthAdjust="spacing" textLength="356" x="181.3002" y="299.5772">urn:uuid:d387fa8e-603c-42bd-98c3-4d87fef8d2bb</text><!--entity table--><g id="elem_table"><rect fill="#F1F1F1" height="46.2969" rx="2.5" ry="2.5" style="stroke:#181818;stroke-width:0.5;" width="89" x="697.3002" y="200.504"/><rect fill="#F1F1F1" height="10" style="stroke:#181818;stroke-width:0.5;" width="15" x="766.3002" y="205.504"/><rect fill="#F1F1F1" height="2" style="stroke:#181818;stroke-width:0.5;" width="4" x="764.3002" y="207.504"/><rect fill="#F1F1F1" height="2" style="stroke:#181818;stroke-width:0.5;" width="4" x="764.3002" y="211.504"/><text fill="#000000" font-family="sans-serif" font-size="14" lengthAdjust="spacing" textLength="49" x="712.3002" y="233.4991">JobList</text></g><!--entity api--><g id="elem_api"><rect fill="#F1F1F1" height="46.2969" rx="2.5" ry="2.5" style="stroke:#181818;stroke-width:0.5;" width="63" x="599.3002" y="200.504"/><rect fill="#F1F1F1" height="10" style="stroke:#181818;stroke-width:0.5;" width="15" x="642.3002" y="205.504"/><rect fill="#F1F1F1" height="2" style="stroke:#181818;stroke-width:0.5;" width="4" x="640.3002" y="207.504"/><rect fill="#F1F1F1" height="2" style="stroke:#181818;stroke-width:0.5;" width="4" x="640.3002" y="211.504"/><text fill="#000000" font-family="sans-serif" font-size="14" lengthAdjust="spacing" textLength="23" x="614.3002" y="233.4991">API</text></g><!--link parameters to api--><g id="link_parameters_api"><path codeLine="22" d="M7.7592,175.3921 C7.7026,174.8269 7.6471,174.2587 7.5927,173.6875 C7.4838,172.5452 7.3793,171.391 7.2797,170.2258 C6.483,160.9041 6,150.8795 6.0982,140.5985 C6.4909,99.4745 16.1832,54.2485 52.3002,33.504 C100.1862,6 501.4142,6 549.3002,33.504 C606.7242,66.487 623.7092,150.616 628.7172,195.038 " fill="none" id="parameters-to-api" style="stroke:#181818;stroke-width:1.0;stroke-dasharray:7.0,7.0;"/><polygon fill="#181818" points="629.2702,200.252,632.2965,190.8796,628.7417,195.28,624.3414,191.7252,629.2702,200.252" style="stroke:#181818;stroke-width:1.0;"/></g><!--link api to table--><g id="link_api_table"><path codeLine="23" d="M662.4522,223.504 C672.3062,223.504 682.1602,223.504 692.0142,223.504 " fill="none" id="api-to-table" style="stroke:#181818;stroke-width:1.0;stroke-dasharray:7.0,7.0;"/><polygon fill="#181818" points="697.1672,223.504,688.1672,219.504,692.1672,223.504,688.1672,227.504,697.1672,223.504" style="stroke:#181818;stroke-width:1.0;"/></g><!--SRC=[LP1FQm8n4CNl-HGXvswnAkrMHDWU2YlIYlPMUiYVKLEoIKYos6tnktSIIz53OF9-ysQ6nurnnqv_QRidHBhEEmisKTPkjaid6gMUNUWOvP5w7dW72KAaT3wdqjc_tiM2_f3Fw2nTRbzViAQKyUX1fiXcz1s_A3GnGYVCiEOXRS3mf9sD1-tPpPbl8MXkCdqRlFukd27wo9m9rwtq3kGW3U1C7F_KQvEAcKbd32vh_bUcq4CXIWUKyYJqA7UqHnxKsQJ0fmFATwFotHidkCb7fbRbxZxOMTzhDLEJ-c77QwZkHnDPJST2LO-rd5HJXJhiQZKM8Xzw8gUh036zbOwfH9UuC42lSBDk2-9U4q8kihrT50rVBelp5m00]--></g></svg>