<?xml version="1.0" encoding="UTF-8" standalone="no"?><svg xmlns="http://www.w3.org/2000/svg" xmlns:xlink="http://www.w3.org/1999/xlink" contentStyleType="text/css" height="194px" preserveAspectRatio="none" style="width:444px;height:194px;background:#FFFFFF;" version="1.1" viewBox="0 0 444 194" width="444px" zoomAndPan="magnify"><defs/><g><!--entity user--><g id="elem_user"><ellipse cx="41" cy="14" fill="#F1F1F1" rx="8" ry="8" style="stroke:#181818;stroke-width:0.5;"/><path d="M41,22 L41,49 M28,30 L54,30 M41,49 L28,64 M41,49 L54,64 " fill="none" style="stroke:#181818;stroke-width:0.5;"/><text fill="#000000" font-family="sans-serif" font-size="14" lengthAdjust="spacing" textLength="70" x="6" y="78.4951">consumer</text></g><!--entity irsdv--><g id="elem_irsdv"><rect fill="#F1F1F1" height="62.5938" rx="2.5" ry="2.5" style="stroke:#181818;stroke-width:0.5;" width="110" x="111" y="12"/><rect fill="#F1F1F1" height="10" style="stroke:#181818;stroke-width:0.5;" width="15" x="201" y="17"/><rect fill="#F1F1F1" height="2" style="stroke:#181818;stroke-width:0.5;" width="4" x="199" y="19"/><rect fill="#F1F1F1" height="2" style="stroke:#181818;stroke-width:0.5;" width="4" x="199" y="23"/><text fill="#000000" font-family="sans-serif" font-size="14" font-style="italic" lengthAdjust="spacing" textLength="70" x="126" y="44.9951">«System»</text><text fill="#000000" font-family="sans-serif" font-size="14" lengthAdjust="spacing" textLength="50" x="136" y="61.292">IRS-DV</text></g><!--entity catenaX--><g id="elem_catenaX"><polygon fill="#F1F1F1" points="256.5,30.5,266.5,20.5,427.5,20.5,427.5,56.7969,417.5,66.7969,256.5,66.7969,256.5,30.5" style="stroke:#181818;stroke-width:0.5;"/><line style="stroke:#181818;stroke-width:0.5;" x1="417.5" x2="427.5" y1="30.5" y2="20.5"/><line style="stroke:#181818;stroke-width:0.5;" x1="256.5" x2="417.5" y1="30.5" y2="30.5"/><line style="stroke:#181818;stroke-width:0.5;" x1="417.5" x2="417.5" y1="30.5" y2="66.7969"/><text fill="#000000" font-family="sans-serif" font-size="14" lengthAdjust="spacing" textLength="131" x="271.5" y="53.4951">Catena-X network</text></g><!--entity api--><g id="elem_api"><ellipse cx="114" cy="157.5" fill="#F1F1F1" rx="12" ry="12" style="stroke:#181818;stroke-width:0.5;"/><line style="stroke:#181818;stroke-width:0.5;" x1="102" x2="126" y1="171.5" y2="171.5"/><text fill="#000000" font-family="sans-serif" font-size="14" lengthAdjust="spacing" textLength="50" x="89" y="186.4951">IRS API</text></g><!--entity regAPI--><g id="elem_regAPI"><ellipse cx="218" cy="157.5" fill="#F1F1F1" rx="12" ry="12" style="stroke:#181818;stroke-width:0.5;"/><line style="stroke:#181818;stroke-width:0.5;" x1="206" x2="230" y1="171.5" y2="171.5"/><text fill="#000000" font-family="sans-serif" font-size="14" lengthAdjust="spacing" textLength="87" x="174.5" y="186.4951">Registry API</text></g><!--link user to irsdv--><g id="link_user_irsdv"><path d="M76.1562,43.5 C87.7377,43.5 99.3191,43.5 110.901,43.5 " fill="none" id="user-irsdv" style="stroke:#181818;stroke-width:1.0;"/></g><!--link irsdv to api--><g id="link_irsdv_api"><path d="M152.744,75.092 C143.837,95.6456 132.279,122.3169 124.113,141.1626 " fill="none" id="irsdv-api" style="stroke:#181818;stroke-width:1.0;"/></g><!--link irsdv to regAPI--><g id="link_irsdv_regAPI"><path d="M179.256,75.092 C188.163,95.6456 199.721,122.3169 207.887,141.1626 " fill="none" id="irsdv-regAPI" style="stroke:#181818;stroke-width:1.0;"/></g><!--link irsdv to catenaX--><g id="link_irsdv_catenaX"><path d="M221.344,43.5 C232.969,43.5 244.595,43.5 256.221,43.5 " fill="none" id="irsdv-catenaX" style="stroke:#181818;stroke-width:1.0;"/></g><!--SRC=[HKxB2eCm4BpdAvRSymSYbFRYhIWKho4k4aeIsLqh-VkQQErjvx4purBaDI21PLWPIRaKbXGn2kYk7ypZfOlaYQSFD0qCcGK3jAsAQKBGToiOhHaXeco9tjNjAZcgFSLBha5mUtPLiuk_-1vdpqBv4Wdd_LIgB05pjAgZsvZo2dzqUa_yw_m2]--></g></svg>