<?xml version="1.0" encoding="UTF-8" standalone="no"?><svg xmlns="http://www.w3.org/2000/svg" xmlns:xlink="http://www.w3.org/1999/xlink" contentStyleType="text/css" height="506px" preserveAspectRatio="none" style="width:975px;height:506px;background:#FFFFFF;" version="1.1" viewBox="0 0 975 506" width="975px" zoomAndPan="magnify"><defs/><g><text fill="#000000" font-family="sans-serif" font-size="14" font-weight="bold" lengthAdjust="spacing" textLength="89" x="436" y="22.9951">IRS-DV app</text><!--cluster irsdv--><g id="cluster_irsdv"><rect fill="none" height="303.5" rx="2.5" ry="2.5" style="stroke:#181818;stroke-width:1.0;" width="647" x="92" y="113.5259"/><rect fill="none" height="10" style="stroke:#181818;stroke-width:1.0;" width="15" x="719" y="118.5259"/><rect fill="none" height="2" style="stroke:#181818;stroke-width:1.0;" width="4" x="717" y="120.5259"/><rect fill="none" height="2" style="stroke:#181818;stroke-width:1.0;" width="4" x="717" y="124.5259"/><text fill="#000000" font-family="sans-serif" font-size="14" font-style="italic" lengthAdjust="spacing" textLength="63" x="384" y="139.521">«Sytem»</text><text fill="#000000" font-family="sans-serif" font-size="14" font-weight="bold" lengthAdjust="spacing" textLength="179" x="326" y="155.8179">IRS-DV app FRONTEND</text></g><!--cluster mainPage--><g id="cluster_mainPage"><rect fill="none" height="220.5" rx="2.5" ry="2.5" style="stroke:#181818;stroke-width:1.0;" width="599" x="116" y="172.5259"/><rect fill="none" height="10" style="stroke:#181818;stroke-width:1.0;" width="15" x="695" y="177.5259"/><rect fill="none" height="2" style="stroke:#181818;stroke-width:1.0;" width="4" x="693" y="179.5259"/><rect fill="none" height="2" style="stroke:#181818;stroke-width:1.0;" width="4" x="693" y="183.5259"/><text fill="#000000" font-family="sans-serif" font-size="14" font-weight="bold" lengthAdjust="spacing" textLength="31" x="400" y="198.521">App</text></g><!--cluster Shared services--><g id="cluster_Shared services"><rect fill="none" height="327.5" rx="2.5" ry="2.5" style="stroke:#181818;stroke-width:1.0;" width="180" x="789" y="172.5259"/><rect fill="none" height="10" style="stroke:#181818;stroke-width:1.0;" width="15" x="949" y="177.5259"/><rect fill="none" height="2" style="stroke:#181818;stroke-width:1.0;" width="4" x="947" y="179.5259"/><rect fill="none" height="2" style="stroke:#181818;stroke-width:1.0;" width="4" x="947" y="183.5259"/><text fill="#000000" font-family="sans-serif" font-size="14" font-weight="bold" lengthAdjust="spacing" textLength="127" x="815.5" y="198.521">Shared services</text></g><!--entity parameters--><g id="elem_parameters"><polygon fill="#F1F1F1" points="356.5,217.5259,366.5,207.5259,555.5,207.5259,555.5,243.8227,545.5,253.8227,356.5,253.8227,356.5,217.5259" style="stroke:#181818;stroke-width:0.5;"/><line style="stroke:#181818;stroke-width:0.5;" x1="545.5" x2="555.5" y1="217.5259" y2="207.5259"/><line style="stroke:#181818;stroke-width:0.5;" x1="356.5" x2="545.5" y1="217.5259" y2="217.5259"/><line style="stroke:#181818;stroke-width:0.5;" x1="545.5" x2="545.5" y1="217.5259" y2="253.8227"/><text fill="#000000" font-family="sans-serif" font-size="14" lengthAdjust="spacing" textLength="159" x="371.5" y="240.521">Fill search parameters</text></g><!--entity env--><g id="elem_env"><polygon fill="#F1F1F1" points="136.5,217.5259,146.5,207.5259,319.5,207.5259,319.5,243.8227,309.5,253.8227,136.5,253.8227,136.5,217.5259" style="stroke:#181818;stroke-width:0.5;"/><line style="stroke:#181818;stroke-width:0.5;" x1="309.5" x2="319.5" y1="217.5259" y2="207.5259"/><line style="stroke:#181818;stroke-width:0.5;" x1="136.5" x2="309.5" y1="217.5259" y2="217.5259"/><line style="stroke:#181818;stroke-width:0.5;" x1="309.5" x2="309.5" y1="217.5259" y2="253.8227"/><text fill="#000000" font-family="sans-serif" font-size="14" lengthAdjust="spacing" textLength="143" x="151.5" y="240.521">Select Environment</text></g><!--entity button--><g id="elem_button"><polygon fill="#F1F1F1" points="132,341.0259,142,331.0259,414,331.0259,414,367.3228,404,377.3228,132,377.3228,132,341.0259" style="stroke:#181818;stroke-width:0.5;"/><line style="stroke:#181818;stroke-width:0.5;" x1="404" x2="414" y1="341.0259" y2="331.0259"/><line style="stroke:#181818;stroke-width:0.5;" x1="132" x2="404" y1="341.0259" y2="341.0259"/><line style="stroke:#181818;stroke-width:0.5;" x1="404" x2="404" y1="341.0259" y2="377.3228"/><text fill="#000000" font-family="sans-serif" font-size="14" lengthAdjust="spacing" textLength="242" x="147" y="364.021">Request information/submit form</text></g><!--entity visual--><g id="elem_visual"><polygon fill="#F1F1F1" points="449.5,341.0259,459.5,331.0259,698.5,331.0259,698.5,367.3228,688.5,377.3228,449.5,377.3228,449.5,341.0259" style="stroke:#181818;stroke-width:0.5;"/><line style="stroke:#181818;stroke-width:0.5;" x1="688.5" x2="698.5" y1="341.0259" y2="331.0259"/><line style="stroke:#181818;stroke-width:0.5;" x1="449.5" x2="688.5" y1="341.0259" y2="341.0259"/><line style="stroke:#181818;stroke-width:0.5;" x1="688.5" x2="688.5" y1="341.0259" y2="377.3228"/><text fill="#000000" font-family="sans-serif" font-size="14" lengthAdjust="spacing" textLength="209" x="464.5" y="364.021">Visualization and information</text></g><!--entity store--><g id="elem_store"><polygon fill="#F1F1F1" points="591.5,217.5259,601.5,207.5259,696.5,207.5259,696.5,243.8227,686.5,253.8227,591.5,253.8227,591.5,217.5259" style="stroke:#181818;stroke-width:0.5;"/><line style="stroke:#181818;stroke-width:0.5;" x1="686.5" x2="696.5" y1="217.5259" y2="207.5259"/><line style="stroke:#181818;stroke-width:0.5;" x1="591.5" x2="686.5" y1="217.5259" y2="217.5259"/><line style="stroke:#181818;stroke-width:0.5;" x1="686.5" x2="686.5" y1="217.5259" y2="253.8227"/><text fill="#000000" font-family="sans-serif" font-size="14" lengthAdjust="spacing" textLength="65" x="606.5" y="240.521">Job store</text></g><!--entity keycloak--><g id="elem_keycloak"><rect fill="#F1F1F1" height="46.2969" rx="2.5" ry="2.5" style="stroke:#181818;stroke-width:0.5;" width="107" x="805.5" y="207.5259"/><rect fill="#F1F1F1" height="10" style="stroke:#181818;stroke-width:0.5;" width="15" x="892.5" y="212.5259"/><rect fill="#F1F1F1" height="2" style="stroke:#181818;stroke-width:0.5;" width="4" x="890.5" y="214.5259"/><rect fill="#F1F1F1" height="2" style="stroke:#181818;stroke-width:0.5;" width="4" x="890.5" y="218.5259"/><text fill="#000000" font-family="sans-serif" font-size="14" lengthAdjust="spacing" textLength="67" x="820.5" y="240.521">KeyCloak</text></g><!--entity token--><g id="elem_token"><path d="M809.5,334.0259 L809.5,358.0259 M809.5,346.0259 L826.5,346.0259 " fill="none" style="stroke:#181818;stroke-width:0.5;"/><ellipse cx="838.5" cy="346.0259" fill="#F1F1F1" rx="12" ry="12" style="stroke:#181818;stroke-width:0.5;"/><text fill="#000000" font-family="sans-serif" font-size="14" lengthAdjust="spacing" textLength="43" x="808.5" y="375.021">token</text></g><!--entity irs--><g id="elem_irs"><rect fill="#F1F1F1" height="46.2969" rx="2.5" ry="2.5" style="stroke:#181818;stroke-width:0.5;" width="63" x="889.5" y="331.0259"/><rect fill="#F1F1F1" height="10" style="stroke:#181818;stroke-width:0.5;" width="15" x="932.5" y="336.0259"/><rect fill="#F1F1F1" height="2" style="stroke:#181818;stroke-width:0.5;" width="4" x="930.5" y="338.0259"/><rect fill="#F1F1F1" height="2" style="stroke:#181818;stroke-width:0.5;" width="4" x="930.5" y="342.0259"/><text fill="#000000" font-family="sans-serif" font-size="14" lengthAdjust="spacing" textLength="23" x="904.5" y="364.021">IRS</text></g><!--entity api--><g id="elem_api"><rect fill="#F1F1F1" height="46.2969" rx="2.5" ry="2.5" style="stroke:#181818;stroke-width:0.5;" width="63" x="805.5" y="438.0259"/><rect fill="#F1F1F1" height="10" style="stroke:#181818;stroke-width:0.5;" width="15" x="848.5" y="443.0259"/><rect fill="#F1F1F1" height="2" style="stroke:#181818;stroke-width:0.5;" width="4" x="846.5" y="445.0259"/><rect fill="#F1F1F1" height="2" style="stroke:#181818;stroke-width:0.5;" width="4" x="846.5" y="449.0259"/><text fill="#000000" font-family="sans-serif" font-size="14" lengthAdjust="spacing" textLength="23" x="820.5" y="471.021">API</text></g><!--entity user--><g id="elem_user"><ellipse cx="41" cy="208.5259" fill="#F1F1F1" rx="16" ry="16" style="stroke:#181818;stroke-width:1.5;"/><path d="M41,228.5259 C45,228.5259 48,228.5259 52,224.5259 C60,224.5259 68,232.5259 68,240.5259 L68,244.5259 C68,248.5259 64,252.5259 60,252.5259 L22,252.5259 C18,252.5259 14,248.5259 14,244.5259 L14,240.5259 C14,232.5259 22,224.5259 30,224.5259 C34,228.5259 37,228.5259 41,228.5259 " fill="#F1F1F1" style="stroke:#181818;stroke-width:1.5;"/><text fill="#000000" font-family="sans-serif" font-size="14" lengthAdjust="spacing" textLength="70" x="6" y="267.021">consumer</text></g><!--link user to env--><g id="link_user_env"><path d="M76.0625,230.5259 C94.4171,230.5259 112.772,230.5259 131.126,230.5259 " fill="none" id="user-to-env" style="stroke:#181818;stroke-width:1.0;stroke-dasharray:7.0,7.0;"/><polygon fill="#181818" points="136.303,230.5259,127.303,226.5259,131.303,230.5259,127.303,234.5259,136.303,230.5259" style="stroke:#181818;stroke-width:1.0;"/></g><!--link env to keycloak--><g id="link_env_keycloak"><path d="M238.813,207.4259 C257.152,171.3559 298.132,102.9549 356.5,75.5259 C425.083,43.2969 627.196,47.2469 697.5,75.5259 C761.423,101.2379 814.266,165.6779 840.716,202.8719 " fill="none" id="env-to-keycloak" style="stroke:#181818;stroke-width:1.0;stroke-dasharray:7.0,7.0;"/><polygon fill="#181818" points="843.81,207.2689,841.8995,197.6071,840.9316,203.1805,835.3582,202.2126,843.81,207.2689" style="stroke:#181818;stroke-width:1.0;"/></g><!--link keycloak to token--><g id="link_keycloak_token"><path d="M852.558,258.5169 C847.841,278.2779 841.458,305.0219 836.685,325.0169 " fill="none" id="keycloak-token" style="stroke:#181818;stroke-width:1.0;stroke-dasharray:7.0,7.0;"/><polygon fill="#181818" points="853.748,253.5289,847.7694,261.3555,852.5882,258.3925,855.5512,263.2113,853.748,253.5289" style="stroke:#181818;stroke-width:1.0;"/><polygon fill="#181818" points="835.509,329.9469,841.4876,322.1202,836.6688,325.0833,833.7058,320.2645,835.509,329.9469" style="stroke:#181818;stroke-width:1.0;"/></g><!--link keycloak to irs--><g id="link_keycloak_irs"><path d="M872.527,258.0339 C882.851,278.2669 897.016,306.0239 907.367,326.3089 " fill="none" id="keycloak-irs" style="stroke:#181818;stroke-width:1.0;stroke-dasharray:7.0,7.0;"/><polygon fill="#181818" points="870.228,253.5289,870.7569,263.3635,872.5011,257.9823,877.8824,259.7265,870.228,253.5289" style="stroke:#181818;stroke-width:1.0;"/><polygon fill="#181818" points="909.646,330.7759,909.1171,320.9412,907.3729,326.3225,901.9916,324.5783,909.646,330.7759" style="stroke:#181818;stroke-width:1.0;"/></g><!--link keycloak to parameters--><g id="link_keycloak_parameters"><path d="M843.81,207.2689 C818.543,170.9809 764.021,102.2829 697.5,75.5259 C653.792,57.9449 634.396,56.0489 591.5,75.5259 C533.8,101.7239 491.031,165.9769 470.186,203.0099 " fill="none" id="keycloak-to-parameters" style="stroke:#181818;stroke-width:1.0;stroke-dasharray:7.0,7.0;"/><polygon fill="#181818" points="467.754,207.3869,475.6222,201.4631,470.1828,203.0164,468.6295,197.577,467.754,207.3869" style="stroke:#181818;stroke-width:1.0;"/></g><!--link irs to api--><g id="link_irs_api"><path d="M903.981,381.6259 C894.998,395.0499 883.479,411.3439 872,425.0259 C869.494,428.013 866.777,431.0408 864.002,434.001 " fill="none" id="irs-api" style="stroke:#181818;stroke-width:1.0;stroke-dasharray:7.0,7.0;"/><polygon fill="#181818" points="906.926,377.1909,898.6155,382.4763,904.1604,381.3564,905.2804,386.9013,906.926,377.1909" style="stroke:#181818;stroke-width:1.0;"/><polygon fill="#181818" points="860.196,437.9856,869.3047,434.2398,863.6494,434.3698,863.5194,428.7144,860.196,437.9856" style="stroke:#181818;stroke-width:1.0;"/></g><!--link parameters to button--><g id="link_parameters_button"><path d="M422.86,253.5289 C391.218,274.5369 343.595,306.1549 310.561,328.0879 " fill="none" id="parameters-to-button" style="stroke:#181818;stroke-width:1.0;stroke-dasharray:7.0,7.0;"/><polygon fill="#181818" points="306.202,330.9819,315.9124,329.3362,310.3675,328.2163,311.4875,322.6714,306.202,330.9819" style="stroke:#181818;stroke-width:1.0;"/></g><!--link button to api--><g id="link_button_api"><path d="M313.184,377.1479 C344.562,393.3139 389.777,414.2239 432,425.0259 C564.539,458.9337 728.574,461.5586 800.412,460.8345 " fill="none" id="button-to-api" style="stroke:#181818;stroke-width:1.0;stroke-dasharray:7.0,7.0;"/><polygon fill="#181818" points="805.423,460.777,796.3779,456.8801,800.4233,460.8341,796.4693,464.8796,805.423,460.777" style="stroke:#181818;stroke-width:1.0;"/></g><!--link api to store--><g id="link_api_store"><path d="M805.262,439.5599 C799.256,435.0883 793.225,430.1497 788,425.0259 C780.712,417.8785 700.962,309.3289 663.38,258.0189 " fill="none" id="api-to-store" style="stroke:#181818;stroke-width:1.0;stroke-dasharray:7.0,7.0;"/><polygon fill="#181818" points="660.313,253.8299,662.4009,263.4549,663.2662,257.8646,668.8565,258.7298,660.313,253.8299" style="stroke:#181818;stroke-width:1.0;"/></g><!--link store to visual--><g id="link_store_visual"><path d="M631.324,253.5289 C619.553,273.9589 602.002,304.4229 589.423,326.2549 " fill="none" id="store-to-visual" style="stroke:#181818;stroke-width:1.0;stroke-dasharray:7.0,7.0;"/><polygon fill="#181818" points="586.819,330.7759,594.7787,324.9755,589.3157,326.4438,587.8474,320.9809,586.819,330.7759" style="stroke:#181818;stroke-width:1.0;"/></g><!--SRC=[NP5DRy8m38Rl-HLMxsFt2I6X0T8sYI4wSNTRRqHjaYuVdJh4Vr_Y5YWxH75UFxQJDrxwXfxWPPy_h0w0RIjSBNMB5XLWwOtDVTyGu0yveqYm1ANHBYYoW0w28ok4A8rgZIRj8RlrWit-VVkntgwoH4hhgWxcyxptf1OBE4shbf6EZ4AfT_X5AQbDHP1jPDE08xJb4VXQvCawRdWxmWZdr53fOQqxQOrMiJ63fBiHsDDt8ET1wazZ5NffzACBXP8Uai1q4RmtUYmuI1UmaR-C0kfgMifunyI8lve2NBI8ECMH46SGvtkByYDQgkApR2TBYgyvJRDlr3yt1clkKLDVfeCeJD0LsXuoRseQPdFqp_kBrrDvkNjX6Ll9Ln7frs2sO6VYIk5rq2M0-IpAmuXxBNM_Al5y-mWXOcw0qYmn-QAaZTOE6roek5ANqItUE3Su-mS0]--></g></svg>