<?xml version="1.0" encoding="UTF-8" standalone="no"?><svg xmlns="http://www.w3.org/2000/svg" xmlns:xlink="http://www.w3.org/1999/xlink" contentStyleType="text/css" height="901px" preserveAspectRatio="none" style="width:1175px;height:901px;background:#FFFFFF;" version="1.1" viewBox="0 0 1175 901" width="1175px" zoomAndPan="magnify"><defs/><g><text fill="#000000" font-family="sans-serif" font-size="14" font-weight="bold" lengthAdjust="spacing" textLength="186" x="487.5" y="22.9951">IRS-DV app job request</text><!--cluster irsdv--><g id="cluster_irsdv"><rect fill="none" height="851" rx="2.5" ry="2.5" style="stroke:#181818;stroke-width:1.0;" width="1162" x="7" y="44.2969"/><rect fill="none" height="10" style="stroke:#181818;stroke-width:1.0;" width="15" x="1149" y="49.2969"/><rect fill="none" height="2" style="stroke:#181818;stroke-width:1.0;" width="4" x="1147" y="51.2969"/><rect fill="none" height="2" style="stroke:#181818;stroke-width:1.0;" width="4" x="1147" y="55.2969"/><text fill="#000000" font-family="sans-serif" font-size="14" font-style="italic" lengthAdjust="spacing" textLength="70" x="553" y="70.292">«System»</text><text fill="#000000" font-family="sans-serif" font-size="14" font-weight="bold" lengthAdjust="spacing" textLength="179" x="498.5" y="86.5889">IRS-DV app FRONTEND</text></g><!--cluster mainPage--><g id="cluster_mainPage"><rect fill="none" height="768" rx="2.5" ry="2.5" style="stroke:#181818;stroke-width:1.0;" width="947" x="198" y="103.2969"/><rect fill="none" height="10" style="stroke:#181818;stroke-width:1.0;" width="15" x="1125" y="108.2969"/><rect fill="none" height="2" style="stroke:#181818;stroke-width:1.0;" width="4" x="1123" y="110.2969"/><rect fill="none" height="2" style="stroke:#181818;stroke-width:1.0;" width="4" x="1123" y="114.2969"/><text fill="#000000" font-family="sans-serif" font-size="14" font-weight="bold" lengthAdjust="spacing" textLength="31" x="656" y="129.292">App</text></g><!--cluster request--><g id="cluster_request"><rect fill="none" height="701" rx="2.5" ry="2.5" style="stroke:#181818;stroke-width:1.0;" width="899" x="222" y="146.2969"/><rect fill="none" height="10" style="stroke:#181818;stroke-width:1.0;" width="15" x="1101" y="151.2969"/><rect fill="none" height="2" style="stroke:#181818;stroke-width:1.0;" width="4" x="1099" y="153.2969"/><rect fill="none" height="2" style="stroke:#181818;stroke-width:1.0;" width="4" x="1099" y="157.2969"/><text fill="#000000" font-family="sans-serif" font-size="14" font-style="italic" lengthAdjust="spacing" textLength="94" x="624.5" y="172.292">«conponent»</text><text fill="#000000" font-family="sans-serif" font-size="14" font-weight="bold" lengthAdjust="spacing" textLength="197" x="573" y="188.5889">ItemRelationshipService</text></g><!--cluster env--><g id="cluster_env"><rect fill="none" height="320" rx="2.5" ry="2.5" style="stroke:#181818;stroke-width:1.0;" width="228" x="254" y="213.2969"/><rect fill="none" height="10" style="stroke:#181818;stroke-width:1.0;" width="15" x="462" y="218.2969"/><rect fill="none" height="2" style="stroke:#181818;stroke-width:1.0;" width="4" x="460" y="220.2969"/><rect fill="none" height="2" style="stroke:#181818;stroke-width:1.0;" width="4" x="460" y="224.2969"/><text fill="#000000" font-family="sans-serif" font-size="14" font-style="italic" lengthAdjust="spacing" textLength="94" x="321" y="239.292">«conponent»</text><text fill="#000000" font-family="sans-serif" font-size="14" font-weight="bold" lengthAdjust="spacing" textLength="155" x="290.5" y="255.5889">IRSSelectServerEnv</text></g><!--cluster parameters--><g id="cluster_parameters"><rect fill="none" height="253" rx="2.5" ry="2.5" style="stroke:#181818;stroke-width:1.0;" width="567" x="522" y="342.2969"/><rect fill="none" height="10" style="stroke:#181818;stroke-width:1.0;" width="15" x="1069" y="347.2969"/><rect fill="none" height="2" style="stroke:#181818;stroke-width:1.0;" width="4" x="1067" y="349.2969"/><rect fill="none" height="2" style="stroke:#181818;stroke-width:1.0;" width="4" x="1067" y="353.2969"/><text fill="#000000" font-family="sans-serif" font-size="14" font-style="italic" lengthAdjust="spacing" textLength="94" x="758.5" y="368.292">«conponent»</text><text fill="#000000" font-family="sans-serif" font-size="14" font-weight="bold" lengthAdjust="spacing" textLength="123" x="744" y="384.5889">IRSJobAddForm</text></g><!--cluster Shared services--><g id="cluster_Shared services"><rect fill="none" height="97" rx="2.5" ry="2.5" style="stroke:#181818;stroke-width:1.0;" width="143" x="31" y="627.2969"/><rect fill="none" height="10" style="stroke:#181818;stroke-width:1.0;" width="15" x="154" y="632.2969"/><rect fill="none" height="2" style="stroke:#181818;stroke-width:1.0;" width="4" x="152" y="634.2969"/><rect fill="none" height="2" style="stroke:#181818;stroke-width:1.0;" width="4" x="152" y="638.2969"/><text fill="#000000" font-family="sans-serif" font-size="14" font-weight="bold" lengthAdjust="spacing" textLength="127" x="39" y="653.292">Shared services</text></g><!--entity button--><g id="elem_button"><rect fill="#F1F1F1" height="46.2969" rx="2.5" ry="2.5" style="stroke:#181818;stroke-width:0.5;" width="97" x="373.5" y="662.2969"/><rect fill="#F1F1F1" height="10" style="stroke:#181818;stroke-width:0.5;" width="15" x="450.5" y="667.2969"/><rect fill="#F1F1F1" height="2" style="stroke:#181818;stroke-width:0.5;" width="4" x="448.5" y="669.2969"/><rect fill="#F1F1F1" height="2" style="stroke:#181818;stroke-width:0.5;" width="4" x="448.5" y="673.2969"/><text fill="#000000" font-family="sans-serif" font-size="14" lengthAdjust="spacing" textLength="57" x="388.5" y="695.292">Find Job</text></g><!--entity table--><g id="elem_table"><rect fill="#F1F1F1" height="62.5938" rx="2.5" ry="2.5" style="stroke:#181818;stroke-width:0.5;" width="152" x="346" y="768.2969"/><rect fill="#F1F1F1" height="10" style="stroke:#181818;stroke-width:0.5;" width="15" x="478" y="773.2969"/><rect fill="#F1F1F1" height="2" style="stroke:#181818;stroke-width:0.5;" width="4" x="476" y="775.2969"/><rect fill="#F1F1F1" height="2" style="stroke:#181818;stroke-width:0.5;" width="4" x="476" y="779.2969"/><text fill="#000000" font-family="sans-serif" font-size="14" font-style="italic" lengthAdjust="spacing" textLength="99" x="367.5" y="801.292">«component»</text><text fill="#000000" font-family="sans-serif" font-size="14" lengthAdjust="spacing" textLength="112" x="361" y="817.5889">IRSJobOverview</text></g><!--entity dev--><g id="elem_dev"><polygon fill="#F1F1F1" points="278,282.2969,288,272.2969,344,272.2969,344,308.5938,334,318.5938,278,318.5938,278,282.2969" style="stroke:#181818;stroke-width:0.5;"/><line style="stroke:#181818;stroke-width:0.5;" x1="334" x2="344" y1="282.2969" y2="272.2969"/><line style="stroke:#181818;stroke-width:0.5;" x1="278" x2="334" y1="282.2969" y2="282.2969"/><line style="stroke:#181818;stroke-width:0.5;" x1="334" x2="334" y1="282.2969" y2="318.5938"/><text fill="#000000" font-family="sans-serif" font-size="14" lengthAdjust="spacing" textLength="26" x="293" y="305.292">dev</text></g><!--entity int--><g id="elem_int"><polygon fill="#F1F1F1" points="379,282.2969,389,272.2969,439,272.2969,439,308.5938,429,318.5938,379,318.5938,379,282.2969" style="stroke:#181818;stroke-width:0.5;"/><line style="stroke:#181818;stroke-width:0.5;" x1="429" x2="439" y1="282.2969" y2="272.2969"/><line style="stroke:#181818;stroke-width:0.5;" x1="379" x2="429" y1="282.2969" y2="282.2969"/><line style="stroke:#181818;stroke-width:0.5;" x1="429" x2="429" y1="282.2969" y2="318.5938"/><text fill="#000000" font-family="sans-serif" font-size="14" lengthAdjust="spacing" textLength="20" x="394" y="305.292">int</text></g><!--entity prod--><g id="elem_prod"><polygon fill="#F1F1F1" points="278,473.2969,288,463.2969,352,463.2969,352,499.5938,342,509.5938,278,509.5938,278,473.2969" style="stroke:#181818;stroke-width:0.5;"/><line style="stroke:#181818;stroke-width:0.5;" x1="342" x2="352" y1="473.2969" y2="463.2969"/><line style="stroke:#181818;stroke-width:0.5;" x1="278" x2="342" y1="473.2969" y2="473.2969"/><line style="stroke:#181818;stroke-width:0.5;" x1="342" x2="342" y1="473.2969" y2="509.5938"/><text fill="#000000" font-family="sans-serif" font-size="14" lengthAdjust="spacing" textLength="34" x="293" y="496.292">prod</text></g><rect fill="#F1F1F1" height="162.375" style="stroke:#181818;stroke-width:0.5;" width="483" x="573.5" y="405.2969"/><text fill="#000000" font-family="sans-serif" font-size="14" lengthAdjust="spacing" textLength="34" x="798" y="420.292">JSON</text><line style="stroke:#181818;stroke-width:1.0;" x1="690.5" x2="690.5" y1="425.5938" y2="567.6719"/><line style="stroke:#181818;stroke-width:1.0;" x1="573.5" x2="1056.5" y1="425.5938" y2="425.5938"/><text fill="#000000" font-family="sans-serif" font-size="14" lengthAdjust="spacing" textLength="56" x="578.5" y="440.5889">aspects</text><text fill="#000000" font-family="sans-serif" font-size="14" lengthAdjust="spacing" textLength="189" x="695.5" y="440.5889">AssemblyPartRelationship</text><line style="stroke:#181818;stroke-width:1.0;" x1="690.5" x2="1056.5" y1="445.8906" y2="445.8906"/><text fill="#000000" font-family="sans-serif" font-size="14" lengthAdjust="spacing" textLength="146" x="695.5" y="460.8857">SerialPartTypization</text><line style="stroke:#181818;stroke-width:1.0;" x1="573.5" x2="1056.5" y1="466.1875" y2="466.1875"/><text fill="#000000" font-family="sans-serif" font-size="14" lengthAdjust="spacing" textLength="97" x="578.5" y="481.1826">bomLifecycle</text><text fill="#000000" font-family="sans-serif" font-size="14" lengthAdjust="spacing" textLength="48" x="695.5" y="481.1826">asBuilt</text><line style="stroke:#181818;stroke-width:1.0;" x1="573.5" x2="1056.5" y1="486.4844" y2="486.4844"/><text fill="#000000" font-family="sans-serif" font-size="14" lengthAdjust="spacing" textLength="107" x="578.5" y="501.4795">collectAspects</text><text fill="#000000" font-family="sans-serif" font-size="14" lengthAdjust="spacing" textLength="30" x="695.5" y="501.4795">true</text><line style="stroke:#181818;stroke-width:1.0;" x1="573.5" x2="1056.5" y1="506.7813" y2="506.7813"/><text fill="#000000" font-family="sans-serif" font-size="14" lengthAdjust="spacing" textLength="65" x="578.5" y="521.7764">direction</text><text fill="#000000" font-family="sans-serif" font-size="14" lengthAdjust="spacing" textLength="72" x="695.5" y="521.7764">downward</text><line style="stroke:#181818;stroke-width:1.0;" x1="573.5" x2="1056.5" y1="527.0781" y2="527.0781"/><text fill="#000000" font-family="sans-serif" font-size="14" lengthAdjust="spacing" textLength="44" x="578.5" y="542.0732">depth</text><text fill="#000000" font-family="sans-serif" font-size="14" lengthAdjust="spacing" textLength="18" x="695.5" y="542.0732">10</text><line style="stroke:#181818;stroke-width:1.0;" x1="573.5" x2="1056.5" y1="547.375" y2="547.375"/><text fill="#000000" font-family="sans-serif" font-size="14" lengthAdjust="spacing" textLength="97" x="578.5" y="562.3701">globalAssetId</text><text fill="#000000" font-family="sans-serif" font-size="14" lengthAdjust="spacing" textLength="356" x="695.5" y="562.3701">urn:uuid:d387fa8e-603c-42bd-98c3-4d87fef8d2bb</text><!--entity api--><g id="elem_api"><rect fill="#F1F1F1" height="46.2969" rx="2.5" ry="2.5" style="stroke:#181818;stroke-width:0.5;" width="63" x="94.5" y="662.2969"/><rect fill="#F1F1F1" height="10" style="stroke:#181818;stroke-width:0.5;" width="15" x="137.5" y="667.2969"/><rect fill="#F1F1F1" height="2" style="stroke:#181818;stroke-width:0.5;" width="4" x="135.5" y="669.2969"/><rect fill="#F1F1F1" height="2" style="stroke:#181818;stroke-width:0.5;" width="4" x="135.5" y="673.2969"/><text fill="#000000" font-family="sans-serif" font-size="14" lengthAdjust="spacing" textLength="23" x="109.5" y="695.292">API</text></g><!--link env to parameters--><g id="link_env_parameters"><path d="M482.0644,323.5134 C482.1415,323.7736 482.219,324.0352 482.2969,324.2982 C482.6086,325.3502 482.9269,326.4245 483.2514,327.5197 C488.4437,345.0439 495.2274,367.9391 502.0104,390.8315 C508.7933,413.7239 515.5755,436.6137 520.7646,454.127 C521.089,455.2215 521.4071,456.2951 521.7186,457.3464 C521.7964,457.6092 521.8739,457.8706 521.9509,458.1306 " fill="none" id="env-to-parameters" style="stroke:#181818;stroke-width:1.0;stroke-dasharray:7.0,7.0;"/><polygon fill="#181818" points="521.9509,458.1306,523.2293,448.3651,520.5305,453.3366,515.5589,450.6378,521.9509,458.1306" style="stroke:#181818;stroke-width:1.0;"/></g><!--link parameters to button--><g id="link_parameters_button"><path codeLine="42" d="M521.8437,502.175 C521.4882,502.8234 521.1229,503.4899 520.748,504.1737 C519.9981,505.5415 519.2102,506.9788 518.3868,508.4806 C511.8001,520.4952 502.9503,536.6378 493.2732,554.2892 C473.9193,589.5921 451.2565,630.9304 436.772,657.3509 " fill="none" id="parameters-to-button" style="stroke:#181818;stroke-width:1.0;stroke-dasharray:7.0,7.0;"/><polygon fill="#181818" points="434.241,661.9679,442.0757,655.9999,436.6452,657.5838,435.0612,652.1532,434.241,661.9679" style="stroke:#181818;stroke-width:1.0;"/></g><!--link button to api--><g id="link_button_api"><path codeLine="43" d="M368.087,685.2969 C299.581,685.2969 231.075,685.2969 162.569,685.2969 " fill="none" id="button-api" style="stroke:#181818;stroke-width:1.0;stroke-dasharray:7.0,7.0;"/><polygon fill="#181818" points="373.441,685.2969,364.441,681.2969,368.441,685.2969,364.441,689.2969,373.441,685.2969" style="stroke:#181818;stroke-width:1.0;"/><polygon fill="#181818" points="157.508,685.2969,166.508,689.2969,162.508,685.2969,166.508,681.2969,157.508,685.2969" style="stroke:#181818;stroke-width:1.0;"/></g><!--link button to table--><g id="link_button_table"><path codeLine="44" d="M422,708.5229 C422,723.9599 422,744.8719 422,762.6819 " fill="none" id="button-to-table" style="stroke:#181818;stroke-width:1.0;stroke-dasharray:7.0,7.0;"/><polygon fill="#181818" points="422,768.0999,426,759.0999,422,763.0999,418,759.0999,422,768.0999" style="stroke:#181818;stroke-width:1.0;"/></g><!--SRC=[RLB1QkCm4BtxAmQTwz9jocus18DB6qXPaX2NlInxaAr9eY9BMabsDblwxpkIGt53JnxDc_Vq_4P11eKpM6wh_E4dS6lXnTJWy4-7FcHSANDivL-fzrcMDQQrHgCEm4RpY-rwzVouUc30FKZdHGymdqDryW5RA0fu7JDBOj1SowNUy3qIE5ObnXOL3z9eVv2sGjVB1fFosLBIRem-KuhYzT9NXGgR4Ade7dMVoAZxInxTh8r04DWFXTHXAAmp8dkxb7qoTId4mhWsALhkU8i1dOTFb5-yqV1KhLTK0p3kBLdoR0Q_w4YDqdjiQtNQS1V6Fyok1fpSIwuY-dooyb_26K6_8yvgq_wGEsnEZKBI9FdxJggGoAmnAlv_-NvbS1qcH4X7hQX4766E-iYT64W2RJXG-yjDEkwLgRcA9iDInEdEwLdNIJ4Ja-ct7PzY_lLcqkHtjxN8lq-RINudg8-xgRYjQqRXlOtJMqWjWF9BmTLT24P_akwwZzl6OveAl5Ou1Dk-1nkNyd4lrO4x5E27T-BPn-TKRfP9Z5iPULby1TVNnNXtsQYEqDdTy84vTIBvV8m3oTX_]--></g></svg>