<?xml version="1.0" encoding="UTF-8" standalone="no"?><svg xmlns="http://www.w3.org/2000/svg" xmlns:xlink="http://www.w3.org/1999/xlink" contentStyleType="text/css" height="628px" preserveAspectRatio="none" style="width:751px;height:628px;background:#FFFFFF;" version="1.1" viewBox="0 0 751 628" width="751px" zoomAndPan="magnify"><defs/><g><text fill="#000000" font-family="sans-serif" font-size="14" font-weight="bold" lengthAdjust="spacing" textLength="89" x="324" y="22.9951">IRS-DV app</text><!--cluster irsdv--><g id="cluster_irsdv"><rect fill="none" height="530.5" rx="2.5" ry="2.5" style="stroke:#181818;stroke-width:1.0;" width="402" x="343" y="91.9219"/><rect fill="none" height="10" style="stroke:#181818;stroke-width:1.0;" width="15" x="725" y="96.9219"/><rect fill="none" height="2" style="stroke:#181818;stroke-width:1.0;" width="4" x="723" y="98.9219"/><rect fill="none" height="2" style="stroke:#181818;stroke-width:1.0;" width="4" x="723" y="102.9219"/><text fill="#000000" font-family="sans-serif" font-size="14" font-weight="bold" lengthAdjust="spacing" textLength="253" x="417.5" y="117.917">IRS-DV app FRONTEND «Sytem»</text></g><!--cluster mainPage--><g id="cluster_mainPage"><rect fill="none" height="447.5" rx="2.5" ry="2.5" style="stroke:#181818;stroke-width:1.0;" width="338" x="375" y="142.9219"/><rect fill="none" height="10" style="stroke:#181818;stroke-width:1.0;" width="15" x="693" y="147.9219"/><rect fill="none" height="2" style="stroke:#181818;stroke-width:1.0;" width="4" x="691" y="149.9219"/><rect fill="none" height="2" style="stroke:#181818;stroke-width:1.0;" width="4" x="691" y="153.9219"/><text fill="#000000" font-family="sans-serif" font-size="14" font-weight="bold" lengthAdjust="spacing" textLength="31" x="528.5" y="168.917">App</text></g><!--cluster Shared services--><g id="cluster_Shared services"><rect fill="none" height="326.5" rx="2.5" ry="2.5" style="stroke:#181818;stroke-width:1.0;" width="224" x="95" y="149.9219"/><rect fill="none" height="10" style="stroke:#181818;stroke-width:1.0;" width="15" x="299" y="154.9219"/><rect fill="none" height="2" style="stroke:#181818;stroke-width:1.0;" width="4" x="297" y="156.9219"/><rect fill="none" height="2" style="stroke:#181818;stroke-width:1.0;" width="4" x="297" y="160.9219"/><text fill="#000000" font-family="sans-serif" font-size="14" font-weight="bold" lengthAdjust="spacing" textLength="127" x="143.5" y="175.917">Shared services</text></g><!--entity parameters--><g id="elem_parameters"><polygon fill="#F1F1F1" points="448.5,318.4219,458.5,308.4219,647.5,308.4219,647.5,344.7188,637.5,354.7188,448.5,354.7188,448.5,318.4219" style="stroke:#181818;stroke-width:0.5;"/><line style="stroke:#181818;stroke-width:0.5;" x1="637.5" x2="647.5" y1="318.4219" y2="308.4219"/><line style="stroke:#181818;stroke-width:0.5;" x1="448.5" x2="637.5" y1="318.4219" y2="318.4219"/><line style="stroke:#181818;stroke-width:0.5;" x1="637.5" x2="637.5" y1="318.4219" y2="354.7188"/><text fill="#000000" font-family="sans-serif" font-size="14" lengthAdjust="spacing" textLength="159" x="463.5" y="341.417">Fill search parameters</text></g><!--entity env--><g id="elem_env"><polygon fill="#F1F1F1" points="456.5,195.9219,466.5,185.9219,639.5,185.9219,639.5,222.2188,629.5,232.2188,456.5,232.2188,456.5,195.9219" style="stroke:#181818;stroke-width:0.5;"/><line style="stroke:#181818;stroke-width:0.5;" x1="629.5" x2="639.5" y1="195.9219" y2="185.9219"/><line style="stroke:#181818;stroke-width:0.5;" x1="456.5" x2="629.5" y1="195.9219" y2="195.9219"/><line style="stroke:#181818;stroke-width:0.5;" x1="629.5" x2="629.5" y1="195.9219" y2="232.2188"/><text fill="#000000" font-family="sans-serif" font-size="14" lengthAdjust="spacing" textLength="143" x="471.5" y="218.917">Select Environment</text></g><!--entity button--><g id="elem_button"><polygon fill="#F1F1F1" points="407,424.4219,417,414.4219,689,414.4219,689,450.7188,679,460.7188,407,460.7188,407,424.4219" style="stroke:#181818;stroke-width:0.5;"/><line style="stroke:#181818;stroke-width:0.5;" x1="679" x2="689" y1="424.4219" y2="414.4219"/><line style="stroke:#181818;stroke-width:0.5;" x1="407" x2="679" y1="424.4219" y2="424.4219"/><line style="stroke:#181818;stroke-width:0.5;" x1="679" x2="679" y1="424.4219" y2="460.7188"/><text fill="#000000" font-family="sans-serif" font-size="14" lengthAdjust="spacing" textLength="242" x="422" y="447.417">Request information/submit form</text></g><!--entity visual--><g id="elem_visual"><polygon fill="#F1F1F1" points="415.5,530.4219,425.5,520.4219,664.5,520.4219,664.5,556.7188,654.5,566.7188,415.5,566.7188,415.5,530.4219" style="stroke:#181818;stroke-width:0.5;"/><line style="stroke:#181818;stroke-width:0.5;" x1="654.5" x2="664.5" y1="530.4219" y2="520.4219"/><line style="stroke:#181818;stroke-width:0.5;" x1="415.5" x2="654.5" y1="530.4219" y2="530.4219"/><line style="stroke:#181818;stroke-width:0.5;" x1="654.5" x2="654.5" y1="530.4219" y2="566.7188"/><text fill="#000000" font-family="sans-serif" font-size="14" lengthAdjust="spacing" textLength="209" x="430.5" y="553.417">Visualization and information</text></g><!--entity keycloak--><g id="elem_keycloak"><rect fill="#F1F1F1" height="46.2969" rx="2.5" ry="2.5" style="stroke:#181818;stroke-width:0.5;" width="107" x="111.5" y="185.9219"/><rect fill="#F1F1F1" height="10" style="stroke:#181818;stroke-width:0.5;" width="15" x="198.5" y="190.9219"/><rect fill="#F1F1F1" height="2" style="stroke:#181818;stroke-width:0.5;" width="4" x="196.5" y="192.9219"/><rect fill="#F1F1F1" height="2" style="stroke:#181818;stroke-width:0.5;" width="4" x="196.5" y="196.9219"/><text fill="#000000" font-family="sans-serif" font-size="14" lengthAdjust="spacing" textLength="67" x="126.5" y="218.917">KeyCloak</text></g><!--entity token--><g id="elem_token"><path d="M257.5,188.9219 L257.5,212.9219 M257.5,200.9219 L274.5,200.9219 " fill="none" style="stroke:#181818;stroke-width:0.5;"/><ellipse cx="286.5" cy="200.9219" fill="#F1F1F1" rx="12" ry="12" style="stroke:#181818;stroke-width:0.5;"/><text fill="#000000" font-family="sans-serif" font-size="14" lengthAdjust="spacing" textLength="43" x="256.5" y="229.917">token</text></g><!--entity irs--><g id="elem_irs"><rect fill="#F1F1F1" height="46.2969" rx="2.5" ry="2.5" style="stroke:#181818;stroke-width:0.5;" width="63" x="186.5" y="308.4219"/><rect fill="#F1F1F1" height="10" style="stroke:#181818;stroke-width:0.5;" width="15" x="229.5" y="313.4219"/><rect fill="#F1F1F1" height="2" style="stroke:#181818;stroke-width:0.5;" width="4" x="227.5" y="315.4219"/><rect fill="#F1F1F1" height="2" style="stroke:#181818;stroke-width:0.5;" width="4" x="227.5" y="319.4219"/><text fill="#000000" font-family="sans-serif" font-size="14" lengthAdjust="spacing" textLength="23" x="201.5" y="341.417">IRS</text></g><!--entity api--><g id="elem_api"><rect fill="#F1F1F1" height="46.2969" rx="2.5" ry="2.5" style="stroke:#181818;stroke-width:0.5;" width="63" x="239.5" y="414.4219"/><rect fill="#F1F1F1" height="10" style="stroke:#181818;stroke-width:0.5;" width="15" x="282.5" y="419.4219"/><rect fill="#F1F1F1" height="2" style="stroke:#181818;stroke-width:0.5;" width="4" x="280.5" y="421.4219"/><rect fill="#F1F1F1" height="2" style="stroke:#181818;stroke-width:0.5;" width="4" x="280.5" y="425.4219"/><text fill="#000000" font-family="sans-serif" font-size="14" lengthAdjust="spacing" textLength="23" x="254.5" y="447.417">API</text></g><!--entity user--><g id="elem_user"><ellipse cx="41" cy="186.9219" fill="#F1F1F1" rx="16" ry="16" style="stroke:#181818;stroke-width:1.5;"/><path d="M41,206.9219 C45,206.9219 48,206.9219 52,202.9219 C60,202.9219 68,210.9219 68,218.9219 L68,222.9219 C68,226.9219 64,230.9219 60,230.9219 L22,230.9219 C18,230.9219 14,226.9219 14,222.9219 L14,218.9219 C14,210.9219 22,202.9219 30,202.9219 C34,206.9219 37,206.9219 41,206.9219 " fill="#F1F1F1" style="stroke:#181818;stroke-width:1.5;"/><text fill="#000000" font-family="sans-serif" font-size="14" lengthAdjust="spacing" textLength="70" x="6" y="245.417">consumer</text></g><!--link user to keycloak--><g id="link_user_keycloak"><path d="M81.5505,208.9219 C89.7711,208.9219 97.9917,208.9219 106.212,208.9219 " fill="none" id="user-keycloak" style="stroke:#181818;stroke-width:1.0;stroke-dasharray:7.0,7.0;"/><polygon fill="#181818" points="76.3594,208.9219,85.3594,212.9219,81.3594,208.9219,85.3594,204.9219,76.3594,208.9219" style="stroke:#181818;stroke-width:1.0;"/><polygon fill="#181818" points="111.331,208.9219,102.331,204.9219,106.331,208.9219,102.331,212.9219,111.331,208.9219" style="stroke:#181818;stroke-width:1.0;"/></g><!--link keycloak to token--><g id="link_keycloak_token"><path d="M223.927,208.9219 C231.966,208.9219 240.004,208.9219 248.042,208.9219 " fill="none" id="keycloak-token" style="stroke:#181818;stroke-width:1.0;stroke-dasharray:7.0,7.0;"/><polygon fill="#181818" points="218.852,208.9219,227.852,212.9219,223.852,208.9219,227.852,204.9219,218.852,208.9219" style="stroke:#181818;stroke-width:1.0;"/><polygon fill="#181818" points="253.047,208.9219,244.047,204.9219,248.047,208.9219,244.047,212.9219,253.047,208.9219" style="stroke:#181818;stroke-width:1.0;"/></g><!--link keycloak to irs--><g id="link_keycloak_irs"><path d="M176.795,236.7379 C185.524,256.5859 197.37,283.5169 206.12,303.4109 " fill="none" id="keycloak-irs" style="stroke:#181818;stroke-width:1.0;stroke-dasharray:7.0,7.0;"/><polygon fill="#181818" points="174.721,232.0239,174.6824,241.8727,176.7338,236.6009,182.0056,238.6522,174.721,232.0239" style="stroke:#181818;stroke-width:1.0;"/><polygon fill="#181818" points="208.161,308.0519,208.1996,298.2031,206.1482,303.4749,200.8764,301.4235,208.161,308.0519" style="stroke:#181818;stroke-width:1.0;"/></g><!--link keycloak to mainPage--><g id="link_keycloak_mainPage"><path d="M170.331,185.7749 C179.97,149.9689 204.059,82.3199 253.5,53.9219 C271.999,43.2969 283.001,43.2969 301.5,53.9219 C333.6635,72.3959 353.6808,108.4641 365.824,141.1615 C368.8598,149.3358 371.4035,157.2995 373.5218,164.7249 C373.7866,165.6531 374.0447,166.5729 374.2964,167.4836 C374.4222,167.9389 374.5464,168.392 374.6689,168.8428 C374.7302,169.0681 374.7911,169.2929 374.8516,169.5171 " fill="none" id="keycloak-to-mainPage" style="stroke:#181818;stroke-width:1.0;stroke-dasharray:7.0,7.0;"/><polygon fill="#181818" points="374.8516,169.5171,376.3694,159.7859,373.5493,164.6897,368.6455,161.8696,374.8516,169.5171" style="stroke:#181818;stroke-width:1.0;"/></g><!--link irs to api--><g id="link_irs_api"><path d="M231.633,359.1739 C239.547,374.7019 249.482,394.1969 257.391,409.7179 " fill="none" id="irs-api" style="stroke:#181818;stroke-width:1.0;stroke-dasharray:7.0,7.0;"/><polygon fill="#181818" points="229.24,354.4779,229.7626,364.3129,231.5103,358.9327,236.8904,360.6804,229.24,354.4779" style="stroke:#181818;stroke-width:1.0;"/><polygon fill="#181818" points="259.776,414.3979,259.2534,404.5629,257.5057,409.943,252.1256,408.1954,259.776,414.3979" style="stroke:#181818;stroke-width:1.0;"/></g><!--link env to parameters--><g id="link_env_parameters"><path d="M548,232.0239 C548,252.0259 548,281.5589 548,303.0479 " fill="none" id="env-to-parameters" style="stroke:#181818;stroke-width:1.0;stroke-dasharray:7.0,7.0;"/><polygon fill="#181818" points="548,308.0519,552,299.0519,548,303.0519,544,299.0519,548,308.0519" style="stroke:#181818;stroke-width:1.0;"/></g><!--link parameters to button--><g id="link_parameters_button"><path d="M548,354.4779 C548,370.4719 548,392.1999 548,409.2639 " fill="none" id="parameters-to-button" style="stroke:#181818;stroke-width:1.0;stroke-dasharray:7.0,7.0;"/><polygon fill="#181818" points="548,414.3979,552,405.3979,548,409.3979,544,405.3979,548,414.3979" style="stroke:#181818;stroke-width:1.0;"/></g><!--link button to api--><g id="link_button_api"><path d="M401.623,437.4219 C370.392,437.4219 339.161,437.4219 307.93,437.4219 " fill="none" id="button-api" style="stroke:#181818;stroke-width:1.0;stroke-dasharray:7.0,7.0;"/><polygon fill="#181818" points="406.636,437.4219,397.636,433.4219,401.636,437.4219,397.636,441.4219,406.636,437.4219" style="stroke:#181818;stroke-width:1.0;"/><polygon fill="#181818" points="302.649,437.4219,311.649,441.4219,307.649,437.4219,311.649,433.4219,302.649,437.4219" style="stroke:#181818;stroke-width:1.0;"/></g><!--link button to visual--><g id="link_button_visual"><path d="M546.303,460.4779 C545.073,476.4719 543.402,498.1999 542.089,515.2639 " fill="none" id="button-to-visual" style="stroke:#181818;stroke-width:1.0;stroke-dasharray:7.0,7.0;"/><polygon fill="#181818" points="541.694,520.3979,546.3713,511.7306,542.0768,515.4126,538.3948,511.118,541.694,520.3979" style="stroke:#181818;stroke-width:1.0;"/></g><!--link api to visual--><g id="link_api_visual"><path d="M302.649,450.6579 C345.587,467.2589 423.214,497.2709 477.981,518.4439 " fill="none" id="api-to-visual" style="stroke:#181818;stroke-width:1.0;stroke-dasharray:7.0,7.0;"/><polygon fill="#181818" points="482.875,520.3369,475.9224,513.3611,478.2113,518.5342,473.0382,520.8231,482.875,520.3369" style="stroke:#181818;stroke-width:1.0;"/></g><!--SRC=[NL7BRi8m4BpxArQvjxrN20aLa50bYaZ5VN6snOeVgH-fKiI_rtO2k3rvTsPsl9hrmajwXis-VbWU0BkEkLRe3YqgGEwDhVqW2V2Rd574CWJSQ1SKMK07mP5bZ76ZEgD9UwZkNh3UlstVLzibp6Rru4dDvrMQ4TOrFPpBgKLKHqQXq3lyf4Hgqn1KQo4bE4BBJv3N8a_MPPjx2vEu9adSmqhtmXgjed4MakudmPw-0ZaFGdyOgz0BevzSE2hX8G5PVGpU6pqD78GBACLFbWBgfXpDyZuh6Bi0k_mDeZwXfIOkRtl1AUvyBjbN6bwamJQRj3JmrB2Z2Rf1Eq3bJKlZ3xdwb_0rnn9Ux3OPnaxaLLYw3SmUvtVxQv7HqRU08fOiRqZihmTXaHWLoJq62gakBr3KYPfI79_yNHgSsYIOSeietBfV]--></g></svg>