<?xml version="1.0" encoding="UTF-8" standalone="no"?><svg xmlns="http://www.w3.org/2000/svg" xmlns:xlink="http://www.w3.org/1999/xlink" contentStyleType="text/css" height="426px" preserveAspectRatio="none" style="width:1065px;height:426px;background:#FFFFFF;" version="1.1" viewBox="0 0 1065 426" width="1065px" zoomAndPan="magnify"><defs/><g><text fill="#000000" font-family="sans-serif" font-size="14" font-weight="bold" lengthAdjust="spacing" textLength="89" x="481" y="22.9951">IRS-DV app</text><!--cluster Shared services--><g id="cluster_Shared services"><rect fill="none" height="221.5" rx="2.5" ry="2.5" style="stroke:#181818;stroke-width:1.0;" width="265" x="794" y="175.6259"/><rect fill="none" height="10" style="stroke:#181818;stroke-width:1.0;" width="15" x="1039" y="180.6259"/><rect fill="none" height="2" style="stroke:#181818;stroke-width:1.0;" width="4" x="1037" y="182.6259"/><rect fill="none" height="2" style="stroke:#181818;stroke-width:1.0;" width="4" x="1037" y="186.6259"/><text fill="#000000" font-family="sans-serif" font-size="14" font-weight="bold" lengthAdjust="spacing" textLength="127" x="863" y="201.621">Shared services</text></g><!--cluster irsdv--><g id="cluster_irsdv"><rect fill="none" height="303.5" rx="2.5" ry="2.5" style="stroke:#181818;stroke-width:1.0;" width="678" x="92" y="116.6259"/><rect fill="none" height="10" style="stroke:#181818;stroke-width:1.0;" width="15" x="750" y="121.6259"/><rect fill="none" height="2" style="stroke:#181818;stroke-width:1.0;" width="4" x="748" y="123.6259"/><rect fill="none" height="2" style="stroke:#181818;stroke-width:1.0;" width="4" x="748" y="127.6259"/><text fill="#000000" font-family="sans-serif" font-size="14" font-style="italic" lengthAdjust="spacing" textLength="63" x="399.5" y="142.621">«Sytem»</text><text fill="#000000" font-family="sans-serif" font-size="14" font-weight="bold" lengthAdjust="spacing" textLength="179" x="341.5" y="158.9179">IRS-DV app FRONTEND</text></g><!--cluster mainPage--><g id="cluster_mainPage"><rect fill="none" height="220.5" rx="2.5" ry="2.5" style="stroke:#181818;stroke-width:1.0;" width="630" x="116" y="175.6259"/><rect fill="none" height="10" style="stroke:#181818;stroke-width:1.0;" width="15" x="726" y="180.6259"/><rect fill="none" height="2" style="stroke:#181818;stroke-width:1.0;" width="4" x="724" y="182.6259"/><rect fill="none" height="2" style="stroke:#181818;stroke-width:1.0;" width="4" x="724" y="186.6259"/><text fill="#000000" font-family="sans-serif" font-size="14" font-weight="bold" lengthAdjust="spacing" textLength="31" x="415.5" y="201.621">App</text></g><!--entity keycloak--><g id="elem_keycloak"><rect fill="#F1F1F1" height="46.2969" rx="2.5" ry="2.5" style="stroke:#181818;stroke-width:0.5;" width="107" x="935.5" y="210.6259"/><rect fill="#F1F1F1" height="10" style="stroke:#181818;stroke-width:0.5;" width="15" x="1022.5" y="215.6259"/><rect fill="#F1F1F1" height="2" style="stroke:#181818;stroke-width:0.5;" width="4" x="1020.5" y="217.6259"/><rect fill="#F1F1F1" height="2" style="stroke:#181818;stroke-width:0.5;" width="4" x="1020.5" y="221.6259"/><text fill="#000000" font-family="sans-serif" font-size="14" lengthAdjust="spacing" textLength="67" x="950.5" y="243.621">KeyCloak</text></g><!--entity token--><g id="elem_token"><path d="M968.5,337.1259 L968.5,361.1259 M968.5,349.1259 L985.5,349.1259 " fill="none" style="stroke:#181818;stroke-width:0.5;"/><ellipse cx="997.5" cy="349.1259" fill="#F1F1F1" rx="12" ry="12" style="stroke:#181818;stroke-width:0.5;"/><text fill="#000000" font-family="sans-serif" font-size="14" lengthAdjust="spacing" textLength="43" x="967.5" y="378.121">token</text></g><!--entity api--><g id="elem_api"><rect fill="#F1F1F1" height="46.2969" rx="2.5" ry="2.5" style="stroke:#181818;stroke-width:0.5;" width="90" x="810" y="210.6259"/><rect fill="#F1F1F1" height="10" style="stroke:#181818;stroke-width:0.5;" width="15" x="880" y="215.6259"/><rect fill="#F1F1F1" height="2" style="stroke:#181818;stroke-width:0.5;" width="4" x="878" y="217.6259"/><rect fill="#F1F1F1" height="2" style="stroke:#181818;stroke-width:0.5;" width="4" x="878" y="221.6259"/><text fill="#000000" font-family="sans-serif" font-size="14" lengthAdjust="spacing" textLength="50" x="825" y="243.621">IRS API</text></g><!--entity parameters--><g id="elem_parameters"><polygon fill="#F1F1F1" points="256.5,220.6259,266.5,210.6259,455.5,210.6259,455.5,246.9228,445.5,256.9228,256.5,256.9228,256.5,220.6259" style="stroke:#181818;stroke-width:0.5;"/><line style="stroke:#181818;stroke-width:0.5;" x1="445.5" x2="455.5" y1="220.6259" y2="210.6259"/><line style="stroke:#181818;stroke-width:0.5;" x1="256.5" x2="445.5" y1="220.6259" y2="220.6259"/><line style="stroke:#181818;stroke-width:0.5;" x1="445.5" x2="445.5" y1="220.6259" y2="256.9228"/><text fill="#000000" font-family="sans-serif" font-size="14" lengthAdjust="spacing" textLength="159" x="271.5" y="243.621">Fill search parameters</text></g><!--entity env--><g id="elem_env"><polygon fill="#F1F1F1" points="490.5,220.6259,500.5,210.6259,729.5,210.6259,729.5,246.9228,719.5,256.9228,490.5,256.9228,490.5,220.6259" style="stroke:#181818;stroke-width:0.5;"/><line style="stroke:#181818;stroke-width:0.5;" x1="719.5" x2="729.5" y1="220.6259" y2="210.6259"/><line style="stroke:#181818;stroke-width:0.5;" x1="490.5" x2="719.5" y1="220.6259" y2="220.6259"/><line style="stroke:#181818;stroke-width:0.5;" x1="719.5" x2="719.5" y1="220.6259" y2="256.9228"/><text fill="#000000" font-family="sans-serif" font-size="14" lengthAdjust="spacing" textLength="199" x="505.5" y="243.621">Select Environment / Log in</text></g><!--entity button--><g id="elem_button"><polygon fill="#F1F1F1" points="529,344.1259,539,334.1259,689,334.1259,689,370.4228,679,380.4228,529,380.4228,529,344.1259" style="stroke:#181818;stroke-width:0.5;"/><line style="stroke:#181818;stroke-width:0.5;" x1="679" x2="689" y1="344.1259" y2="334.1259"/><line style="stroke:#181818;stroke-width:0.5;" x1="529" x2="679" y1="344.1259" y2="344.1259"/><line style="stroke:#181818;stroke-width:0.5;" x1="679" x2="679" y1="344.1259" y2="380.4228"/><text fill="#000000" font-family="sans-serif" font-size="14" lengthAdjust="spacing" textLength="120" x="544" y="367.121">Find Job / submit</text></g><!--entity visual--><g id="elem_visual"><polygon fill="#F1F1F1" points="132,344.1259,142,334.1259,454,334.1259,454,370.4228,444,380.4228,132,380.4228,132,344.1259" style="stroke:#181818;stroke-width:0.5;"/><line style="stroke:#181818;stroke-width:0.5;" x1="444" x2="454" y1="344.1259" y2="334.1259"/><line style="stroke:#181818;stroke-width:0.5;" x1="132" x2="444" y1="344.1259" y2="344.1259"/><line style="stroke:#181818;stroke-width:0.5;" x1="444" x2="444" y1="344.1259" y2="380.4228"/><text fill="#000000" font-family="sans-serif" font-size="14" lengthAdjust="spacing" textLength="282" x="147" y="367.121">Single Job visualization and information</text></g><!--entity list--><g id="elem_list"><polygon fill="#F1F1F1" points="132.5,220.6259,142.5,210.6259,221.5,210.6259,221.5,246.9228,211.5,256.9228,132.5,256.9228,132.5,220.6259" style="stroke:#181818;stroke-width:0.5;"/><line style="stroke:#181818;stroke-width:0.5;" x1="211.5" x2="221.5" y1="220.6259" y2="210.6259"/><line style="stroke:#181818;stroke-width:0.5;" x1="132.5" x2="211.5" y1="220.6259" y2="220.6259"/><line style="stroke:#181818;stroke-width:0.5;" x1="211.5" x2="211.5" y1="220.6259" y2="256.9228"/><text fill="#000000" font-family="sans-serif" font-size="14" lengthAdjust="spacing" textLength="49" x="147.5" y="243.621">Job list</text></g><!--entity user--><g id="elem_user"><ellipse cx="41" cy="211.6259" fill="#F1F1F1" rx="16" ry="16" style="stroke:#181818;stroke-width:1.5;"/><path d="M41,231.6259 C45,231.6259 48,231.6259 52,227.6259 C60,227.6259 68,235.6259 68,243.6259 L68,247.6259 C68,251.6259 64,255.6259 60,255.6259 L22,255.6259 C18,255.6259 14,251.6259 14,247.6259 L14,243.6259 C14,235.6259 22,227.6259 30,227.6259 C34,231.6259 37,231.6259 41,231.6259 " fill="#F1F1F1" style="stroke:#181818;stroke-width:1.5;"/><text fill="#000000" font-family="sans-serif" font-size="14" lengthAdjust="spacing" textLength="70" x="6" y="270.121">consumer</text></g><!--link user to env--><g id="link_user_env"><path d="M52.236,193.9739 C65.1403,156.7229 90.3066,103.1489 133.5,78.6259 C195.726,43.2969 389.413,51.1889 455.5,78.6259 C517.714,104.4549 567.857,168.8499 592.81,206.0049 " fill="none" id="user-to-env" style="stroke:#181818;stroke-width:1.0;"/><polygon fill="#181818" points="595.727,210.3969,594.0798,200.6867,592.9608,206.2318,587.4157,205.1127,595.727,210.3969" style="stroke:#181818;stroke-width:1.0;"/></g><!--link env to keycloak--><g id="link_env_keycloak"><path d="M630.063,210.5389 C663.392,174.1559 734.199,104.9179 811.5,78.6259 C848.949,65.8889 866.2,58.9249 900.5,78.6259 C947.624,105.6919 971.716,168.4169 982.217,205.2409 " fill="none" id="env-to-keycloak" style="stroke:#181818;stroke-width:1.0;stroke-dasharray:7.0,7.0;"/><polygon fill="#181818" points="983.669,210.4789,985.1222,200.7378,982.3347,205.6602,977.4123,202.8727,983.669,210.4789" style="stroke:#181818;stroke-width:1.0;"/></g><!--link keycloak to token--><g id="link_keycloak_token"><path d="M989,261.8889 C989,281.5459 989,308.0069 989,327.8849 " fill="none" id="keycloak-token" style="stroke:#181818;stroke-width:1.0;stroke-dasharray:7.0,7.0;"/><polygon fill="#181818" points="989,256.6289,985,265.6289,989,261.6289,993,265.6289,989,256.6289" style="stroke:#181818;stroke-width:1.0;"/><polygon fill="#181818" points="989,333.0469,993,324.0469,989,328.0469,985,324.0469,989,333.0469" style="stroke:#181818;stroke-width:1.0;"/></g><!--link keycloak to parameters--><g id="link_keycloak_parameters"><path d="M983.669,210.4789 C974.03,174.6729 949.941,107.0239 900.5,78.6259 C860.997,55.9369 531.945,59.7159 490.5,78.6259 C433.266,104.7399 390.998,168.5689 370.279,205.6629 " fill="none" id="keycloak-to-parameters" style="stroke:#181818;stroke-width:1.0;stroke-dasharray:7.0,7.0;"/><polygon fill="#181818" points="367.62,210.4919,375.4662,204.5389,370.0326,206.1124,368.459,200.6788,367.62,210.4919" style="stroke:#181818;stroke-width:1.0;"/></g><!--link parameters to button--><g id="link_parameters_button"><path d="M401.816,256.6289 C446.008,277.8509 512.747,309.9019 558.464,331.8569 " fill="none" id="parameters-to-button" style="stroke:#181818;stroke-width:1.0;stroke-dasharray:7.0,7.0;"/><polygon fill="#181818" points="563.098,334.0819,556.7164,326.5802,558.5907,331.9175,553.2534,333.7919,563.098,334.0819" style="stroke:#181818;stroke-width:1.0;"/></g><!--link button to api--><g id="link_button_api"><path d="M653.632,334.0819 C696.63,312.8449 761.523,280.7939 805.948,258.8529 " fill="none" id="button-to-api" style="stroke:#181818;stroke-width:1.0;stroke-dasharray:7.0,7.0;"/><polygon fill="#181818" points="810.451,256.6289,800.6102,257.0283,805.9681,258.8432,804.1532,264.201,810.451,256.6289" style="stroke:#181818;stroke-width:1.0;"/></g><!--link api to list--><g id="link_api_list"><path d="M844.457,210.5369 C826.545,174.4839 786.394,106.1039 728.5,78.6259 C681.121,56.1389 301.977,52.5049 256.5,78.6259 C210.383,105.1139 190.111,168.3499 181.937,205.3489 " fill="none" id="api-to-list" style="stroke:#181818;stroke-width:1.0;stroke-dasharray:7.0,7.0;"/><polygon fill="#181818" points="180.817,210.6099,186.6017,202.6389,181.8571,205.7193,178.7767,200.9747,180.817,210.6099" style="stroke:#181818;stroke-width:1.0;"/></g><!--link list to visual--><g id="link_list_visual"><path d="M198.007,256.6289 C217.757,277.3149 247.328,308.2889 268.222,330.1729 " fill="none" id="list-to-visual" style="stroke:#181818;stroke-width:1.0;stroke-dasharray:7.0,7.0;"/><polygon fill="#181818" points="271.758,333.8759,268.437,324.6038,268.3056,330.2592,262.6502,330.1277,271.758,333.8759" style="stroke:#181818;stroke-width:1.0;"/></g><!--SRC=[NL5DQyCm3BtxLuZSszr72PIrXNtGbMRihYHQA-AFO3iPsUX_d-saRTZ1jgJtddYIFNj9Z_1yB1QRJy2s5QvXtQ951LXvOmi_I0By9cSKYLI2ocZNARA03Zf7LeZAgDPeqXwoueoMQWZbdYjo6VpEqLSQdgJ19elQXeOg9g8qdQxH3f1vqv1EO8hcqk0HreVd16BBuYB-eTC4i3k-xp-s-qrYidLr3wjLCNXIUHxSp5Jhm0uSXQmFUA80QbCJP3kMCao0jZf3sWLviYxrkwSmaGkIL7dOwfwjqIhsVO0tSm8U1o7Ttzhg6bvC6N3NbOfzmilEUwElpLYVmhuZgMVNeUGVz6mqO92o_Z9MfJmfHyQaZ1B9RkmP0t61k2CHVmWMUV8H3Ypp- -Al0QoMeJok_5OBbVkqGimcZ-J9zlYaIloKS5AS3CGhPQFHFm00]--></g></svg>